<svg width="126" height="23" viewBox="0 0 126 23" fill="none" xmlns="http://www.w3.org/2000/svg">
<path d="M16.9687 10.368H13.6087C13.1607 10.368 12.7847 10.288 12.4807 10.128C12.1927 9.952 11.9847 9.712 11.8567 9.408C11.3607 9.936 10.7687 10.384 10.0807 10.752C9.40872 11.12 8.65672 11.408 7.82472 11.616C7.00872 11.808 6.12872 11.928 5.18472 11.976C4.25672 12.008 3.29672 11.96 2.30472 11.832C1.76072 11.768 1.30472 11.552 0.936719 11.184C0.584719 10.8 0.440719 10.288 0.504719 9.648C0.568719 9.088 0.800719 8.68 1.20072 8.424C1.60072 8.152 2.08872 8.048 2.66472 8.112C3.57672 8.208 4.40872 8.216 5.16072 8.136C5.91272 8.056 6.56072 7.896 7.10472 7.656C7.66472 7.4 8.09672 7.072 8.40072 6.672C8.70472 6.256 8.85672 5.76 8.85672 5.184V5.064C8.85672 4.872 8.81672 4.744 8.73672 4.68C8.65672 4.616 8.51272 4.584 8.30472 4.584H2.88072C2.52872 4.584 2.22472 4.536 1.96872 4.44C1.72872 4.328 1.52872 4.184 1.36872 4.008C1.20872 3.832 1.08872 3.632 1.00872 3.408C0.944719 3.184 0.912719 2.952 0.912719 2.712C0.912719 2.248 1.06472 1.832 1.36872 1.464C1.67272 1.08 2.17672 0.887999 2.88072 0.887999H10.0807C10.9447 0.887999 11.6167 1.008 12.0967 1.248C12.5927 1.488 12.9527 1.848 13.1767 2.328H16.9927C17.0567 1.656 17.3127 1.152 17.7607 0.816C18.2087 0.463999 18.7287 0.287999 19.3207 0.287999C19.6247 0.287999 19.9207 0.343999 20.2087 0.455998C20.4967 0.551999 20.7527 0.695999 20.9767 0.887999C21.2007 1.08 21.3767 1.32 21.5047 1.608C21.6487 1.896 21.7207 2.232 21.7207 2.616V11.856H16.9687V10.368ZM4.77672 22.824C4.23272 22.824 3.74472 22.736 3.31272 22.56C2.89672 22.384 2.54472 22.144 2.25672 21.84C1.96872 21.536 1.74472 21.192 1.58472 20.808C1.44072 20.408 1.36872 19.992 1.36872 19.56V19.272C1.36872 18.408 1.65672 17.72 2.23272 17.208C2.82472 16.696 3.67272 16.44 4.77672 16.44H16.8487V15.816C16.8487 15.672 16.8247 15.576 16.7767 15.528C16.7287 15.464 16.6247 15.432 16.4647 15.432H2.95272C2.48872 15.432 2.15272 15.288 1.94472 15C1.73672 14.712 1.63272 14.384 1.63272 14.016C1.63272 13.68 1.73672 13.368 1.94472 13.08C2.15272 12.776 2.48872 12.624 2.95272 12.624H18.7927C19.8647 12.624 20.6167 12.808 21.0487 13.176C21.4967 13.544 21.7207 14.2 21.7207 15.144V18.984H6.96072C6.78472 18.984 6.64872 19.032 6.55272 19.128C6.47272 19.208 6.43272 19.312 6.43272 19.44V19.512C6.43272 19.64 6.47272 19.752 6.55272 19.848C6.64872 19.928 6.78472 19.968 6.96072 19.968H20.9767C21.4567 19.968 21.8007 20.12 22.0087 20.424C22.2327 20.728 22.3447 21.064 22.3447 21.432C22.3447 21.768 22.2407 22.08 22.0327 22.368C21.8247 22.672 21.4727 22.824 20.9767 22.824H4.77672ZM13.1767 7.104C13.2407 7.104 13.3047 7.104 13.3687 7.104C13.4487 7.088 13.5287 7.08 13.6087 7.08H16.9687V5.616H13.4407C13.3927 6.112 13.3047 6.608 13.1767 7.104ZM40.2727 2.616C40.2727 1.848 40.5127 1.272 40.9927 0.887999C41.4727 0.487999 42.0247 0.287999 42.6487 0.287999C42.9527 0.287999 43.2487 0.343999 43.5367 0.455998C43.8247 0.551999 44.0727 0.695999 44.2807 0.887999C44.5047 1.08 44.6807 1.32 44.8087 1.608C44.9527 1.896 45.0247 2.232 45.0247 2.616V8.688H45.8167C46.1847 8.688 46.4887 8.752 46.7287 8.88C46.9687 9.008 47.1607 9.176 47.3047 9.384C47.4487 9.576 47.5527 9.8 47.6167 10.056C47.6807 10.296 47.7127 10.536 47.7127 10.776C47.7127 11.016 47.6807 11.264 47.6167 11.52C47.5527 11.76 47.4487 11.984 47.3047 12.192C47.1607 12.384 46.9607 12.544 46.7047 12.672C46.4647 12.8 46.1687 12.864 45.8167 12.864H45.0247V22.824H40.2727V2.616ZM33.2167 13.56C33.4567 12.824 33.6327 11.952 33.7447 10.944C33.8567 9.92 33.9127 8.656 33.9127 7.152V5.688C33.9127 5.304 33.7207 5.112 33.3367 5.112H26.3767C26.0247 5.112 25.7207 5.056 25.4647 4.944C25.2087 4.816 24.9927 4.656 24.8167 4.464C24.6567 4.272 24.5367 4.056 24.4567 3.816C24.3767 3.576 24.3367 3.328 24.3367 3.072C24.3367 2.816 24.3767 2.568 24.4567 2.328C24.5367 2.088 24.6567 1.872 24.8167 1.68C24.9927 1.488 25.2087 1.336 25.4647 1.224C25.7207 1.096 26.0247 1.032 26.3767 1.032H34.9447C35.6167 1.032 36.1767 1.096 36.6247 1.224C37.0887 1.352 37.4567 1.552 37.7287 1.824C38.0167 2.096 38.2167 2.44 38.3287 2.856C38.4407 3.272 38.4967 3.768 38.4967 4.344V7.176C38.4967 8.984 38.4167 10.488 38.2567 11.688C38.1127 12.888 37.8807 13.936 37.5607 14.832C37.4487 15.152 37.2807 15.424 37.0567 15.648C36.8327 15.856 36.5687 16.024 36.2647 16.152C35.9767 16.264 35.6567 16.328 35.3047 16.344C34.9687 16.344 34.6247 16.296 34.2727 16.2C33.7127 16.024 33.3527 15.68 33.1927 15.168C33.0327 14.656 33.0407 14.12 33.2167 13.56ZM27.0007 18.12V10.728C27.0007 9.944 27.2167 9.392 27.6487 9.072C28.0967 8.736 28.6407 8.568 29.2807 8.568C29.9047 8.568 30.4407 8.736 30.8887 9.072C31.3367 9.408 31.5607 9.96 31.5607 10.728V18.12H37.3927C38.1287 18.12 38.6487 18.32 38.9527 18.72C39.2567 19.104 39.4087 19.544 39.4087 20.04C39.4087 20.552 39.2487 21 38.9287 21.384C38.6247 21.784 38.1127 21.984 37.3927 21.984H25.9687C25.2487 21.984 24.7287 21.784 24.4087 21.384C24.0887 21 23.9287 20.552 23.9287 20.04C23.9287 19.544 24.0807 19.104 24.3847 18.72C24.7047 18.32 25.2327 18.12 25.9687 18.12H27.0007ZM58.1113 0.311999C58.6393 0.311999 59.1273 0.455999 59.5753 0.743999C60.0233 1.016 60.3113 1.448 60.4393 2.04H71.2633C71.3593 1.416 71.6313 0.975999 72.0793 0.719999C72.5433 0.447999 73.0633 0.311999 73.6393 0.311999C73.9433 0.311999 74.2393 0.351999 74.5273 0.431999C74.8313 0.511999 75.0953 0.639999 75.3193 0.816C75.5433 0.991999 75.7273 1.216 75.8713 1.488C76.0153 1.76 76.0873 2.088 76.0873 2.472V9.984H59.0713C58.3513 9.984 57.7673 9.928 57.3193 9.816C56.8713 9.688 56.5193 9.48 56.2633 9.192C56.0233 8.904 55.8553 8.528 55.7593 8.064C55.6793 7.6 55.6393 7.016 55.6393 6.312V2.472C55.6393 2.088 55.7033 1.76 55.8313 1.488C55.9753 1.2 56.1593 0.975999 56.3833 0.816C56.6233 0.639999 56.8873 0.511999 57.1753 0.431999C57.4793 0.351999 57.7913 0.311999 58.1113 0.311999ZM63.6553 14.856H56.5033C56.1673 14.856 55.8793 14.808 55.6393 14.712C55.3993 14.6 55.2073 14.456 55.0633 14.28C54.9193 14.104 54.8073 13.904 54.7273 13.68C54.6633 13.456 54.6313 13.232 54.6313 13.008C54.6313 12.784 54.6633 12.56 54.7273 12.336C54.7913 12.112 54.8953 11.912 55.0393 11.736C55.1993 11.544 55.3993 11.392 55.6393 11.28C55.8793 11.168 56.1673 11.112 56.5033 11.112H75.2233C75.5593 11.112 75.8473 11.168 76.0873 11.28C76.3273 11.392 76.5193 11.544 76.6633 11.736C76.8233 11.912 76.9353 12.112 76.9993 12.336C77.0633 12.56 77.0953 12.784 77.0953 13.008C77.0953 13.232 77.0553 13.456 76.9753 13.68C76.9113 13.904 76.8073 14.104 76.6633 14.28C76.5193 14.456 76.3273 14.6 76.0873 14.712C75.8473 14.808 75.5593 14.856 75.2233 14.856H68.4793V17.832H63.6553V14.856ZM59.2633 22.824C58.5913 22.824 58.0313 22.76 57.5833 22.632C57.1353 22.52 56.7833 22.328 56.5273 22.056C56.2713 21.784 56.0873 21.432 55.9753 21C55.8793 20.552 55.8313 20 55.8313 19.344V17.976C55.8313 17.16 56.0793 16.584 56.5753 16.248C57.0713 15.896 57.6553 15.72 58.3273 15.72C58.9993 15.72 59.5673 15.896 60.0313 16.248C60.5113 16.6 60.7513 17.176 60.7513 17.976V18.672C60.7513 18.88 60.7833 19.016 60.8473 19.08C60.9113 19.128 61.0553 19.152 61.2793 19.152H74.3353C75.0713 19.152 75.5913 19.336 75.8953 19.704C76.1993 20.072 76.3513 20.496 76.3513 20.976C76.3513 21.472 76.1913 21.904 75.8713 22.272C75.5673 22.64 75.0553 22.824 74.3353 22.824H59.2633ZM71.2393 6.72V5.136H60.4873V5.976C60.4873 6.216 60.5353 6.4 60.6313 6.528C60.7433 6.656 60.9433 6.72 61.2313 6.72H71.2393ZM82.1593 18C81.4873 18 80.9673 17.824 80.5993 17.472C80.2473 17.12 80.0713 16.664 80.0713 16.104C80.0713 15.544 80.2473 15.088 80.5993 14.736C80.9673 14.384 81.4873 14.208 82.1593 14.208H97.0153C97.7673 14.208 98.3753 14.264 98.8393 14.376C99.3033 14.488 99.6633 14.688 99.9193 14.976C100.175 15.264 100.343 15.648 100.423 16.128C100.519 16.592 100.567 17.184 100.567 17.904V22.824H95.7193V18.576C95.7193 18.192 95.5273 18 95.1433 18H82.1593ZM79.7833 9.216C81.0153 8.848 81.9433 8.176 82.5673 7.2C83.2073 6.224 83.5273 4.848 83.5273 3.072V2.76C83.5273 2.376 83.5913 2.048 83.7193 1.776C83.8633 1.488 84.0473 1.256 84.2713 1.08C84.5113 0.887999 84.7753 0.751998 85.0633 0.671999C85.3673 0.575999 85.6793 0.527999 85.9993 0.527999C86.6233 0.543999 87.1593 0.743999 87.6073 1.128C88.0713 1.496 88.3033 2.04 88.3033 2.76V3.072C88.3033 3.488 88.2873 3.896 88.2553 4.296C88.2233 4.68 88.1753 5.056 88.1113 5.424C88.9433 5.52 89.6953 5.736 90.3673 6.072C91.0553 6.408 91.6393 6.872 92.1193 7.464C92.5993 8.056 92.9593 8.792 93.1993 9.672C93.4553 10.536 93.5593 11.552 93.5113 12.72H88.9033C88.9833 11.664 88.8473 10.824 88.4953 10.2C88.1433 9.56 87.5913 9.168 86.8393 9.024C86.1513 10.224 85.2953 11.168 84.2713 11.856C83.2473 12.528 82.1833 12.928 81.0793 13.056C80.7593 13.088 80.4633 13.072 80.1913 13.008C79.9193 12.944 79.6793 12.848 79.4713 12.72C79.2633 12.592 79.0873 12.432 78.9433 12.24C78.7993 12.048 78.7033 11.848 78.6553 11.64C78.4953 11.096 78.5193 10.592 78.7273 10.128C78.9513 9.664 79.3033 9.36 79.7833 9.216ZM95.6713 7.2H93.6553C93.0633 7.2 92.5993 7 92.2633 6.6C91.9433 6.184 91.7833 5.72 91.7833 5.208C91.7833 4.696 91.9353 4.24 92.2393 3.84C92.5433 3.424 93.0153 3.216 93.6553 3.216H95.6713V2.616C95.6713 1.848 95.9113 1.272 96.3913 0.887999C96.8713 0.487999 97.4233 0.287999 98.0473 0.287999C98.3513 0.287999 98.6473 0.343999 98.9353 0.455998C99.2233 0.551999 99.4793 0.695999 99.7033 0.887999C99.9273 1.08 100.103 1.32 100.231 1.608C100.375 1.896 100.447 2.232 100.447 2.616V13.272H95.6713V7.2ZM111.439 14.928V13.776H104.503C103.831 13.776 103.351 13.608 103.063 13.272C102.775 12.92 102.631 12.512 102.631 12.048C102.631 11.6 102.767 11.192 103.039 10.824C103.327 10.456 103.815 10.272 104.503 10.272H123.223C123.911 10.272 124.391 10.456 124.663 10.824C124.951 11.192 125.095 11.6 125.095 12.048C125.095 12.512 124.951 12.92 124.663 13.272C124.375 13.608 123.895 13.776 123.223 13.776H116.287V14.928H119.935C120.687 14.928 121.343 15.032 121.903 15.24C122.463 15.432 122.927 15.712 123.295 16.08C123.679 16.432 123.959 16.848 124.135 17.328C124.327 17.808 124.423 18.336 124.423 18.912C124.423 19.488 124.327 20.016 124.135 20.496C123.959 20.976 123.679 21.392 123.295 21.744C122.927 22.112 122.463 22.392 121.903 22.584C121.343 22.792 120.687 22.896 119.935 22.896H107.791C107.039 22.896 106.375 22.792 105.799 22.584C105.239 22.392 104.775 22.112 104.407 21.744C104.039 21.392 103.759 20.976 103.567 20.496C103.391 20.016 103.303 19.488 103.303 18.912C103.303 18.336 103.391 17.808 103.567 17.328C103.759 16.848 104.039 16.432 104.407 16.08C104.775 15.712 105.239 15.432 105.799 15.24C106.375 15.032 107.039 14.928 107.791 14.928H111.439ZM122.239 0.623999C122.927 0.623999 123.415 0.807999 123.703 1.176C123.991 1.528 124.135 1.936 124.135 2.4C124.135 2.864 123.983 3.28 123.679 3.648C123.391 4 122.911 4.176 122.239 4.176H116.335C116.255 4.528 116.159 4.824 116.047 5.064C116.415 5.032 116.783 5.016 117.151 5.016C117.519 5 117.887 5 118.255 5.016C119.039 5.048 119.783 5.144 120.487 5.304C121.207 5.448 121.855 5.696 122.431 6.048C123.007 6.384 123.503 6.832 123.919 7.392C124.351 7.952 124.687 8.656 124.927 9.504H120.079C119.887 9.152 119.631 8.856 119.311 8.616C119.007 8.376 118.663 8.184 118.279 8.04C117.895 7.88 117.479 7.768 117.031 7.704C116.599 7.624 116.159 7.584 115.711 7.584C115.391 7.584 115.063 7.6 114.727 7.632C114.391 7.648 114.047 7.696 113.695 7.776C113.119 8.144 112.487 8.464 111.799 8.736C111.111 8.992 110.391 9.192 109.639 9.336C108.887 9.48 108.119 9.568 107.335 9.6C106.551 9.616 105.775 9.584 105.007 9.504C104.351 9.44 103.863 9.224 103.543 8.856C103.223 8.472 103.095 7.976 103.159 7.368C103.207 6.904 103.415 6.536 103.783 6.264C104.151 5.992 104.615 5.872 105.175 5.904C105.943 5.952 106.679 5.96 107.383 5.928C108.087 5.896 108.727 5.816 109.303 5.688C109.879 5.56 110.375 5.376 110.791 5.136C111.223 4.88 111.551 4.56 111.775 4.176H105.487C104.815 4.176 104.327 4 104.023 3.648C103.735 3.28 103.591 2.864 103.591 2.4C103.591 1.936 103.735 1.528 104.023 1.176C104.311 0.807999 104.799 0.623999 105.487 0.623999H122.239ZM118.519 19.704C118.951 19.704 119.231 19.616 119.359 19.44C119.487 19.264 119.551 19.088 119.551 18.912C119.551 18.736 119.487 18.56 119.359 18.384C119.231 18.208 118.951 18.12 118.519 18.12H109.207C108.775 18.12 108.495 18.208 108.367 18.384C108.239 18.56 108.175 18.736 108.175 18.912C108.175 19.088 108.239 19.264 108.367 19.44C108.495 19.616 108.775 19.704 109.207 19.704H118.519Z" fill="white"/>
</svg>
