<svg width="32" height="32" viewBox="0 0 32 32" fill="none" xmlns="http://www.w3.org/2000/svg">
<g clip-path="url(#clip0_112_966)">
<path d="M15.9467 12.1467C13.7067 12.1467 11.8934 13.96 11.8934 16.2C11.8934 18.44 13.7067 20.2533 15.9467 20.2533C18.1867 20.2533 20 18.44 20 16.2C20 13.96 18.1867 12.1467 15.9467 12.1467Z" fill="#7E8089"/>
<path d="M26 8.51999H24.32C23.6534 8.51999 23.0134 8.18666 22.6534 7.61333L21.6134 6.03999C21 5.10666 19.9467 4.53333 18.8267 4.53333H13.0134C11.8934 4.53333 10.84 5.09333 10.2267 6.03999L9.18669 7.61333C8.81335 8.17333 8.18669 8.51999 7.52002 8.51999H6.00002C4.16002 8.51999 2.66669 10.0133 2.66669 11.8533V22.52C2.66669 24.36 4.16002 25.8533 6.00002 25.8533H26C27.84 25.8533 29.3334 24.36 29.3334 22.52V11.8533C29.3334 10.0133 27.84 8.51999 26 8.51999V8.51999ZM16 23.3067C12.08 23.3067 8.90669 20.1333 8.90669 16.2133C8.90669 12.2933 12.08 9.11999 16 9.11999C19.92 9.11999 23.0934 12.2933 23.0934 16.2133C23.0934 20.1333 19.92 23.3067 16 23.3067ZM25.1467 12.92C24.6 12.92 24.1467 12.4667 24.1467 11.92C24.1467 11.3733 24.6 10.92 25.1467 10.92C25.6934 10.92 26.1467 11.3733 26.1467 11.92C26.1467 12.4667 25.6934 12.92 25.1467 12.92Z" fill="#7E8089"/>
</g>
<defs>
<clipPath id="clip0_112_966">
<rect width="32" height="32" fill="white"/>
</clipPath>
</defs>
</svg>
