<svg width="24" height="24" viewBox="0 0 24 24" fill="none" xmlns="http://www.w3.org/2000/svg">
<path d="M7.41839 7.35156H7.16761L6.69897 9.69531H7.88702L7.41839 7.35156Z" fill="#ACB0C0"/>
<path d="M16.8974 12.0391C17.1504 12.7187 17.4869 13.2689 17.8594 13.737C18.2318 13.2689 18.6074 12.7187 18.8604 12.0391H16.8974Z" fill="#ACB0C0"/>
<path d="M20.2422 5.55469H12.9655L14.4828 17.7296C14.5096 18.2276 14.3735 18.6964 14.0485 19.0635L11.479 22H20.2422C21.2115 22 22 21.2115 22 20.2422V7.35156C22 6.38227 21.2115 5.55469 20.2422 5.55469ZM20.2422 12.0391H20.0857C19.7523 13.1087 19.2236 13.9457 18.6741 14.6055C19.1046 14.9991 19.5648 15.3219 20.0224 15.6834C20.2748 15.8854 20.316 16.2539 20.1134 16.5068C19.9118 16.7594 19.5419 16.8003 19.29 16.5978C18.7928 16.2054 18.3261 15.8768 17.8594 15.4486C17.3926 15.8768 16.965 16.2054 16.4678 16.5978C16.2159 16.8003 15.846 16.7594 15.6444 16.5068C15.4418 16.2539 15.483 15.8854 15.7353 15.6834C16.1929 15.3219 16.6142 14.9991 17.0446 14.6055C16.4951 13.9457 16.0054 13.1087 15.6721 12.0391H15.5156C15.1917 12.0391 14.9297 11.777 14.9297 11.4531C14.9297 11.1293 15.1917 10.8672 15.5156 10.8672H17.2734V10.2812C17.2734 9.95738 17.5355 9.69531 17.8594 9.69531C18.1832 9.69531 18.4453 9.95738 18.4453 10.2812V10.8672H20.2422C20.566 10.8672 20.8281 11.1293 20.8281 11.4531C20.8281 11.777 20.566 12.0391 20.2422 12.0391Z" fill="#ACB0C0"/>
<path d="M11.5377 3.5398C11.4284 2.66203 10.6782 2 9.79359 2H3.75781C2.78852 2 2 2.78852 2 3.75781V16.7266C2 17.6959 2.78852 18.4844 3.75781 18.4844C7.26055 18.4844 9.78035 18.4844 12.9981 18.4844C13.169 18.289 13.3123 18.1666 13.3184 17.9116C13.3198 17.8477 11.5456 3.60324 11.5377 3.5398ZM9.18531 13.1995C8.87461 13.2634 8.55988 13.0617 8.49582 12.74L8.12133 10.8672H6.46465L6.09016 12.74C6.02723 13.057 5.72164 13.2653 5.40066 13.1995C5.08367 13.136 4.87766 12.8276 4.94117 12.51L6.11301 6.65063C6.16793 6.37711 6.40828 6.17969 6.6875 6.17969H7.89844C8.17766 6.17969 8.41801 6.37711 8.47293 6.65063L9.64481 12.51C9.70832 12.8276 9.50234 13.136 9.18531 13.1995Z" fill="#ACB0C0"/>
<path d="M8.84613 19.6562L8.94668 20.4602C9.01371 20.9986 9.37144 21.5476 9.95988 21.8218C11.0703 20.5993 10.3985 21.3389 11.927 19.6562H8.84613Z" fill="#ACB0C0"/>
</svg>
