<svg width="216" height="216" viewBox="0 0 216 216" fill="none" xmlns="http://www.w3.org/2000/svg">
<g clip-path="url(#clip0_112_890)">
<path d="M151 0H65C29.1015 0 0 29.1015 0 65V151C0 186.899 29.1015 216 65 216H151C186.899 216 216 186.899 216 151V65C216 29.1015 186.899 0 151 0Z" fill="url(#paint0_linear_112_890)"/>
<path d="M71.03 169.91C59.76 164.17 40.49 162.7 38.59 170.04C36.37 178.6 41.6 187.06 58.55 192.48C75.49 197.91 87.97 197.3 89.97 190.25C92.94 179.79 71.03 169.91 71.03 169.91Z" fill="url(#paint1_linear_112_890)"/>
<path d="M71.03 169.91C59.76 164.17 40.49 162.7 38.59 170.04C36.37 178.6 41.6 187.06 58.55 192.48C75.49 197.91 87.97 197.3 89.97 190.25C92.94 179.79 71.03 169.91 71.03 169.91Z" fill="url(#paint2_radial_112_890)"/>
<path d="M146.42 169.83C157.46 164.52 177.27 163.9 178.86 170.7C180.87 179.31 175.44 187.64 158.36 192.67C141.28 197.7 128.82 196.81 126.99 189.72C124.27 179.2 146.42 169.82 146.42 169.82V169.83Z" fill="url(#paint3_radial_112_890)"/>
<path d="M146.42 169.83C157.46 164.52 177.27 163.9 178.86 170.7C180.87 179.31 175.44 187.64 158.36 192.67C141.28 197.7 128.82 196.81 126.99 189.72C124.27 179.2 146.42 169.82 146.42 169.82V169.83Z" fill="url(#paint4_linear_112_890)"/>
<path d="M146.42 169.83C157.46 164.52 177.27 163.9 178.86 170.7C180.87 179.31 175.44 187.64 158.36 192.67C141.28 197.7 128.82 196.81 126.99 189.72C124.27 179.2 146.42 169.82 146.42 169.82V169.83Z" fill="url(#paint5_radial_112_890)"/>
<path d="M71.03 169.91C59.76 164.17 40.49 162.7 38.59 170.04C36.37 178.6 41.6 187.06 58.55 192.48C75.49 197.91 87.97 197.3 89.97 190.25C92.94 179.79 71.03 169.91 71.03 169.91Z" fill="url(#paint6_radial_112_890)"/>
<path d="M86.97 172C86.92 172.06 68.94 193.3 72.46 216H143.63C146.58 191.59 130.71 172.95 130.71 172.95L86.97 172.01V172Z" fill="url(#paint7_radial_112_890)"/>
<path d="M54.72 80.56L67.09 72.53L49.55 53.59L44.63 55.31L54.73 80.57L54.72 80.56Z" fill="url(#paint8_radial_112_890)"/>
<path d="M46.39 64.56C52.68 64.56 57.78 59.51 57.78 53.28C57.78 47.05 52.68 42 46.39 42C40.1 42 35 47.05 35 53.28C35 59.51 40.1 64.56 46.39 64.56Z" fill="url(#paint9_radial_112_890)"/>
<path d="M158 81.49L147.25 71.24L166.67 54.19L170.67 57.4L158 81.49V81.49Z" fill="url(#paint10_radial_112_890)"/>
<path d="M169.12 65.22C175.41 65.22 180.51 60.17 180.51 53.94C180.51 47.71 175.41 42.66 169.12 42.66C162.83 42.66 157.73 47.71 157.73 53.94C157.73 60.17 162.83 65.22 169.12 65.22Z" fill="url(#paint11_radial_112_890)"/>
<path d="M176.65 123.75C176.65 141.32 172.15 155.61 161.14 165.86C148.92 177.23 130.88 180.37 106.3 180.08C87.26 179.86 67.34 175.66 54.59 164.72C40.33 152.49 36.46 138.23 36.33 120.9C36.08 86.76 66.34 54.89 106.3 54.61C145.89 54.33 176.65 89.1 176.65 123.75V123.75Z" fill="url(#paint12_linear_112_890)"/>
<path d="M108.65 82.51C82.57 82.21 53.04 98.04 53.04 130.92C53.04 163.8 86.29 170.81 106.35 170.81C130.14 170.81 159.95 167.16 159.95 131.84C159.95 101.7 134.73 82.82 108.65 82.51V82.51Z" fill="url(#paint13_radial_112_890)"/>
<g opacity="0.3">
<path d="M108.65 82.51C82.57 82.21 53.04 98.04 53.04 130.92C53.04 163.8 86.29 170.81 106.35 170.81C130.14 170.81 159.95 167.16 159.95 131.84C159.95 101.7 134.73 82.82 108.65 82.51V82.51Z" fill="url(#paint14_linear_112_890)"/>
</g>
<path d="M79.88 116.09C86.65 116.09 90.64 121.26 90.64 127.96C90.64 134.66 84.8 138.92 78.95 138.92C73.1 138.92 67.88 134.96 67.88 128.57C67.88 122.18 72.8 116.09 79.87 116.09H79.88Z" fill="url(#paint15_radial_112_890)"/>
<path d="M136.16 116.09C129.39 116.09 124.78 121.26 124.78 127.96C124.78 134.66 130.62 138.92 136.47 138.92C142.32 138.92 147.54 134.96 147.54 128.57C147.54 122.18 143.23 116.09 136.16 116.09V116.09Z" fill="url(#paint16_radial_112_890)"/>
<path opacity="0.8" fill-rule="evenodd" clip-rule="evenodd" d="M131.43 104.25C131.45 103.66 131.94 103.2 132.54 103.22L132.51 104.29L132.54 103.22H132.56C132.56 103.22 132.59 103.22 132.61 103.22C132.65 103.22 132.71 103.22 132.78 103.22C132.93 103.22 133.15 103.24 133.42 103.26C133.96 103.29 134.72 103.36 135.59 103.46C137.32 103.66 139.56 104.04 141.46 104.74C142.02 104.94 142.3 105.56 142.09 106.11C141.88 106.66 141.26 106.94 140.71 106.74C139.05 106.13 137 105.78 135.33 105.58C134.5 105.48 133.79 105.43 133.27 105.39C133.02 105.37 132.81 105.36 132.68 105.36C132.61 105.36 132.56 105.36 132.52 105.36C132.5 105.36 132.49 105.36 132.48 105.36H132.47C131.88 105.34 131.41 104.85 131.43 104.26V104.25Z" fill="black"/>
<path fill-rule="evenodd" clip-rule="evenodd" d="M105.09 143.63C105 142.97 104.38 142.5 103.71 142.59C103.04 142.68 102.56 143.29 102.65 143.95L103.87 143.79C103.057 143.897 102.65 143.95 102.65 143.95C102.65 143.95 102.65 143.97 102.65 143.98C102.65 143.99 102.65 144.01 102.65 144.04C102.65 144.08 102.67 144.14 102.68 144.21C102.71 144.35 102.76 144.55 102.83 144.77C102.97 145.22 103.22 145.83 103.65 146.45C104.53 147.74 106.13 148.96 108.78 148.96C111.43 148.96 113.03 147.73 113.91 146.45C114.33 145.83 114.58 145.22 114.73 144.77C114.8 144.54 114.85 144.35 114.88 144.21C114.89 144.14 114.91 144.08 114.91 144.04C114.91 144.02 114.91 144 114.91 143.98C114.91 143.98 114.91 143.97 114.91 143.96C114.91 143.96 114.91 143.95 113.69 143.79L114.91 143.95C115 143.28 114.52 142.67 113.85 142.59C113.18 142.5 112.56 142.97 112.47 143.63C112.47 143.63 112.47 143.63 112.47 143.64C112.47 143.65 112.47 143.68 112.46 143.72C112.45 143.79 112.42 143.91 112.37 144.05C112.28 144.34 112.12 144.72 111.87 145.09C111.39 145.78 110.53 146.54 108.78 146.54C107.03 146.54 106.16 145.79 105.68 145.09C105.43 144.72 105.27 144.34 105.18 144.05C105.14 143.91 105.11 143.79 105.09 143.72C105.09 143.68 105.08 143.66 105.07 143.64C105.07 143.64 105.07 143.64 105.07 143.63H105.09Z" fill="#0C0C0C"/>
<path d="M79.46 147.01C79.46 149.58 74.87 151.66 69.22 151.66C63.57 151.66 58.98 149.58 58.98 147.01C58.98 144.44 63.57 142.36 69.22 142.36C74.87 142.36 79.46 144.44 79.46 147.01Z" fill="#FF96BE"/>
<path d="M157.29 147.01C157.29 149.58 152.7 151.66 147.05 151.66C141.4 151.66 136.8 149.58 136.8 147.01C136.8 144.44 141.39 142.36 147.05 142.36C152.71 142.36 157.29 144.44 157.29 147.01Z" fill="#FF96BE"/>
</g>
<defs>
<linearGradient id="paint0_linear_112_890" x1="184.85" y1="166.7" x2="24.63" y2="44.31" gradientUnits="userSpaceOnUse">
<stop stop-color="#456DF9"/>
<stop offset="1" stop-color="#625FFF"/>
</linearGradient>
<linearGradient id="paint1_linear_112_890" x1="65.13" y1="174.29" x2="62.17" y2="194.23" gradientUnits="userSpaceOnUse">
<stop offset="0.16" stop-color="#E8EAF3"/>
<stop offset="0.68" stop-color="#ABBBD8"/>
<stop offset="1" stop-color="#8CA3CB"/>
</linearGradient>
<radialGradient id="paint2_radial_112_890" cx="0" cy="0" r="1" gradientUnits="userSpaceOnUse" gradientTransform="translate(63.8952 186.827) rotate(114.54) scale(13.7 29.16)">
<stop offset="0.16" stop-color="#DADFEA"/>
<stop offset="0.35" stop-color="#D6DCE8"/>
<stop offset="0.54" stop-color="#CAD3E3"/>
<stop offset="0.73" stop-color="#B6C4DC"/>
<stop offset="0.91" stop-color="#9BAFD1"/>
<stop offset="1" stop-color="#8CA3CB"/>
</radialGradient>
<radialGradient id="paint3_radial_112_890" cx="0" cy="0" r="1" gradientUnits="userSpaceOnUse" gradientTransform="translate(153.211 185.844) rotate(73.2) scale(13.42 27.75)">
<stop offset="0.06" stop-color="#E8EAF3"/>
<stop offset="0.31" stop-color="#E5E7F1"/>
<stop offset="0.49" stop-color="#DBE0ED"/>
<stop offset="0.66" stop-color="#CBD4E6"/>
<stop offset="0.81" stop-color="#B5C3DD"/>
<stop offset="0.95" stop-color="#98ADD0"/>
<stop offset="1" stop-color="#8CA3CB"/>
</radialGradient>
<linearGradient id="paint4_linear_112_890" x1="152.22" y1="174.48" x2="154.7" y2="194.33" gradientUnits="userSpaceOnUse">
<stop offset="0.16" stop-color="#E8EAF3"/>
<stop offset="0.68" stop-color="#ABBBD8"/>
<stop offset="1" stop-color="#8CA3CB"/>
</linearGradient>
<radialGradient id="paint5_radial_112_890" cx="0" cy="0" r="1" gradientUnits="userSpaceOnUse" gradientTransform="translate(153.223 186.432) rotate(66.81) scale(13.65 29.09)">
<stop offset="0.16" stop-color="#D2D8EC"/>
<stop offset="0.37" stop-color="#CED5EA"/>
<stop offset="0.56" stop-color="#C2CCE4"/>
<stop offset="0.76" stop-color="#AEBDDB"/>
<stop offset="0.95" stop-color="#93A8CE"/>
<stop offset="1" stop-color="#8CA3CB"/>
</radialGradient>
<radialGradient id="paint6_radial_112_890" cx="0" cy="0" r="1" gradientUnits="userSpaceOnUse" gradientTransform="translate(62.5476 187.006) rotate(108.16) scale(13.47 27.81)">
<stop offset="0.06" stop-color="#E8EAF3"/>
<stop offset="0.31" stop-color="#E5E7F1"/>
<stop offset="0.49" stop-color="#DBE0ED"/>
<stop offset="0.66" stop-color="#CBD4E6"/>
<stop offset="0.81" stop-color="#B5C3DD"/>
<stop offset="0.95" stop-color="#98ADD0"/>
<stop offset="1" stop-color="#8CA3CB"/>
</radialGradient>
<radialGradient id="paint7_radial_112_890" cx="0" cy="0" r="1" gradientUnits="userSpaceOnUse" gradientTransform="translate(88.2 194.81) scale(42.53 42.53)">
<stop stop-color="#E8EAF3"/>
<stop offset="0.27" stop-color="#E5E7F1"/>
<stop offset="0.47" stop-color="#DBE0ED"/>
<stop offset="0.64" stop-color="#CBD4E6"/>
<stop offset="0.8" stop-color="#B5C3DD"/>
<stop offset="0.94" stop-color="#98ADD0"/>
<stop offset="1" stop-color="#8CA3CB"/>
</radialGradient>
<radialGradient id="paint8_radial_112_890" cx="0" cy="0" r="1" gradientUnits="userSpaceOnUse" gradientTransform="translate(60.1939 70.6669) rotate(50.78) scale(13.63 10.65)">
<stop offset="0.2" stop-color="#F1F5FB"/>
<stop offset="0.9" stop-color="#9DB1D7"/>
</radialGradient>
<radialGradient id="paint9_radial_112_890" cx="0" cy="0" r="1" gradientUnits="userSpaceOnUse" gradientTransform="translate(48.753 52.517) scale(14.85 14.7)">
<stop stop-color="white"/>
<stop offset="0.81" stop-color="#96ACDA"/>
</radialGradient>
<radialGradient id="paint10_radial_112_890" cx="0" cy="0" r="1" gradientUnits="userSpaceOnUse" gradientTransform="translate(152.656 69.1192) scale(12.79 12.66)">
<stop offset="0.2" stop-color="#F1F5FB"/>
<stop offset="0.9" stop-color="#9DB1D7"/>
</radialGradient>
<radialGradient id="paint11_radial_112_890" cx="0" cy="0" r="1" gradientUnits="userSpaceOnUse" gradientTransform="translate(173.849 50.634) scale(15.31 15.15)">
<stop stop-color="white"/>
<stop offset="0.81" stop-color="#96ACDA"/>
</radialGradient>
<linearGradient id="paint12_linear_112_890" x1="59.38" y1="83.83" x2="166.39" y2="167.85" gradientUnits="userSpaceOnUse">
<stop stop-color="#E5E7EF"/>
<stop offset="1" stop-color="#96ACDA"/>
</linearGradient>
<radialGradient id="paint13_radial_112_890" cx="0" cy="0" r="1" gradientUnits="userSpaceOnUse" gradientTransform="translate(111.863 126.202) scale(54.15 43.89)">
<stop offset="0.88" stop-color="#EFF3F6"/>
<stop offset="1" stop-color="#CFD6DC"/>
</radialGradient>
<linearGradient id="paint14_linear_112_890" x1="71.98" y1="110.06" x2="153.65" y2="152.15" gradientUnits="userSpaceOnUse">
<stop offset="0.19" stop-color="white"/>
<stop offset="1" stop-color="#E5E9EE"/>
</linearGradient>
<radialGradient id="paint15_radial_112_890" cx="0" cy="0" r="1" gradientUnits="userSpaceOnUse" gradientTransform="translate(92.8839 125.442) scale(20.23 20.02)">
<stop stop-color="#4F4F4F"/>
<stop offset="1"/>
</radialGradient>
<radialGradient id="paint16_radial_112_890" cx="0" cy="0" r="1" gradientUnits="userSpaceOnUse" gradientTransform="translate(145.786 123.01) scale(20.68 20.47)">
<stop stop-color="#4F4F4F"/>
<stop offset="1"/>
</radialGradient>
<clipPath id="clip0_112_890">
<rect width="216" height="216" fill="white"/>
</clipPath>
</defs>
</svg>
