<svg width="164" height="23" viewBox="0 0 164 23" fill="none" xmlns="http://www.w3.org/2000/svg">
<path d="M85 6.65924C85 5.85244 85.1415 5.17339 85.4244 4.62208C85.7074 4.05732 86.0981 3.60014 86.5967 3.25053C87.0952 2.88747 87.688 2.62526 88.3752 2.46391C89.0758 2.30255 89.8371 2.22187 90.659 2.22187C91.3597 2.22187 92.0132 2.28238 92.6195 2.4034C93.2258 2.52442 93.7648 2.71939 94.2363 2.98832C94.7079 3.24381 95.0987 3.57325 95.4086 3.97665C95.7319 4.38004 95.961 4.87084 96.0957 5.44904H98.905V3.95648C98.905 3.31104 99.1071 2.82696 99.5114 2.50425C99.9156 2.16808 100.38 2 100.906 2C101.162 2 101.411 2.04706 101.654 2.14119C101.896 2.22187 102.112 2.34289 102.3 2.50425C102.489 2.6656 102.637 2.8673 102.745 3.10934C102.866 3.35138 102.927 3.63376 102.927 3.95648V11.7219H98.905V8.5552H96.0755C95.9273 9.10651 95.6915 9.57714 95.3681 9.96709C95.0448 10.357 94.6473 10.6798 94.1757 10.9352C93.7176 11.1773 93.1854 11.3588 92.5791 11.4798C91.9862 11.5874 91.3462 11.6412 90.659 11.6412C89.8371 11.6412 89.0758 11.5605 88.3752 11.3992C87.688 11.2378 87.0952 10.9823 86.5967 10.6327C86.0981 10.2696 85.7074 9.81246 85.4244 9.26115C85.1415 8.69639 85 8.01062 85 7.20382V6.65924ZM88.6582 20.9395C88.2 20.9395 87.7891 20.8655 87.4253 20.7176C87.075 20.5697 86.7785 20.368 86.536 20.1125C86.2935 19.857 86.1049 19.5679 85.9701 19.2452C85.8489 18.9091 85.7882 18.5594 85.7882 18.1964V17.9544C85.7882 17.2282 86.0308 16.65 86.5158 16.2197C87.0143 15.7895 87.7285 15.5743 88.6582 15.5743H98.8242V15.0499C98.8242 14.9289 98.804 14.8482 98.7636 14.8079C98.7231 14.7541 98.6356 14.7272 98.5008 14.7272H87.1221C86.7314 14.7272 86.4484 14.6062 86.2733 14.3641C86.0981 14.1221 86.0105 13.8464 86.0105 13.5372C86.0105 13.2548 86.0981 12.9926 86.2733 12.7505C86.4484 12.495 86.7314 12.3673 87.1221 12.3673H100.461C101.364 12.3673 101.997 12.5219 102.361 12.8312C102.738 13.1405 102.927 13.6918 102.927 14.4851V17.7123H90.4973C90.3491 17.7123 90.2346 17.7527 90.1538 17.8333C90.0864 17.9006 90.0527 17.988 90.0527 18.0955V18.1561C90.0527 18.2636 90.0864 18.3578 90.1538 18.4384C90.2346 18.5057 90.3491 18.5393 90.4973 18.5393H102.3C102.705 18.5393 102.994 18.667 103.17 18.9225C103.358 19.178 103.452 19.4604 103.452 19.7696C103.452 20.052 103.365 20.3142 103.19 20.5563C103.015 20.8117 102.718 20.9395 102.3 20.9395H88.6582ZM88.9411 7.34501C88.9411 7.85598 89.0961 8.22576 89.406 8.45435C89.7293 8.68294 90.147 8.79724 90.659 8.79724C91.171 8.79724 91.582 8.68294 91.8919 8.45435C92.2153 8.22576 92.3769 7.85598 92.3769 7.34501V6.51805C92.3769 6.02052 92.2153 5.65747 91.8919 5.42887C91.582 5.18684 91.171 5.06582 90.659 5.06582C90.147 5.06582 89.7293 5.18684 89.406 5.42887C89.0961 5.65747 88.9411 6.02052 88.9411 6.51805V7.34501Z" fill="#3D3D42"/>
<path d="M107.769 20.9395C107.311 20.9395 106.9 20.8655 106.537 20.7176C106.186 20.5697 105.89 20.3747 105.647 20.1327C105.405 19.8907 105.223 19.6083 105.102 19.2856C104.98 18.9628 104.92 18.62 104.92 18.2569V17.9342C104.92 17.2081 105.162 16.6299 105.647 16.1996C106.132 15.7558 106.84 15.534 107.769 15.534H118.279V15.0701C118.279 14.8549 118.138 14.7473 117.855 14.7473H106.233C105.843 14.7473 105.56 14.6263 105.385 14.3843C105.209 14.1423 105.122 13.8733 105.122 13.5775C105.122 13.2817 105.209 13.0127 105.385 12.7707C105.56 12.5152 105.843 12.3875 106.233 12.3875H111.771V11.379H105.87C105.317 11.379 104.927 11.2311 104.697 10.9352C104.468 10.6394 104.354 10.2965 104.354 9.90658C104.354 9.73178 104.381 9.55697 104.435 9.38217C104.489 9.19391 104.576 9.03256 104.697 8.89809C104.819 8.75018 104.974 8.63588 105.162 8.5552C105.351 8.46108 105.587 8.41401 105.87 8.41401H117.572C117.76 8.0644 117.902 7.6879 117.996 7.2845C118.09 6.86766 118.138 6.39703 118.138 5.87261V5.69108C118.138 5.54317 118.104 5.44904 118.037 5.40871C117.969 5.35492 117.855 5.32803 117.693 5.32803H106.86C106.254 5.32803 105.816 5.18011 105.546 4.88429C105.29 4.58846 105.162 4.22541 105.162 3.79512C105.162 3.39172 105.29 3.04211 105.546 2.74628C105.816 2.43701 106.254 2.28238 106.86 2.28238H119.674C120.576 2.28238 121.216 2.46391 121.594 2.82696C121.971 3.17657 122.16 3.69427 122.16 4.38004V5.12633C122.16 5.91967 122.092 6.57856 121.957 7.10297C121.823 7.61394 121.661 8.05096 121.472 8.41401H121.755C122.038 8.41401 122.274 8.46108 122.463 8.5552C122.651 8.63588 122.806 8.75018 122.928 8.89809C123.049 9.03256 123.136 9.19391 123.19 9.38217C123.244 9.55697 123.271 9.73178 123.271 9.90658C123.271 10.2965 123.157 10.6394 122.928 10.9352C122.699 11.2311 122.308 11.379 121.755 11.379H115.854V12.3875H119.997C120.886 12.3875 121.513 12.5421 121.877 12.8514C122.254 13.1607 122.443 13.712 122.443 14.5053V17.7527H109.73C109.582 17.7527 109.467 17.793 109.386 17.8737C109.306 17.9409 109.265 18.0283 109.265 18.1359V18.1964C109.265 18.304 109.306 18.3914 109.386 18.4586C109.467 18.5258 109.582 18.5594 109.73 18.5594H121.877C122.267 18.5594 122.55 18.6872 122.725 18.9427C122.914 19.1847 123.008 19.4604 123.008 19.7696C123.008 20.052 122.921 20.3142 122.746 20.5563C122.571 20.8117 122.281 20.9395 121.877 20.9395H107.769Z" fill="#3D3D42"/>
<path d="M129.488 21C128.787 21 128.174 20.9059 127.649 20.7176C127.137 20.5428 126.712 20.2941 126.376 19.9713C126.039 19.6486 125.789 19.2654 125.628 18.8217C125.466 18.3779 125.385 17.8938 125.385 17.3694C125.385 16.845 125.466 16.3609 125.628 15.9172C125.789 15.46 126.039 15.0701 126.376 14.7473C126.712 14.4246 127.137 14.1691 127.649 13.9809C128.174 13.7926 128.787 13.6985 129.488 13.6985H138.623C139.31 13.6985 139.91 13.7926 140.422 13.9809C140.948 14.1557 141.379 14.4045 141.716 14.7272C142.052 15.0499 142.302 15.4398 142.463 15.897C142.639 16.3408 142.726 16.8316 142.726 17.3694C142.726 18.4452 142.389 19.3192 141.716 19.9915C141.042 20.6638 140.011 21 138.623 21H129.488ZM125.789 12.8514C125.318 12.8514 124.947 12.7035 124.678 12.4076C124.422 12.0984 124.294 11.7622 124.294 11.3992C124.294 11.0361 124.415 10.7134 124.658 10.431C124.9 10.1486 125.277 10.0074 125.789 10.0074H125.85V7.78875C125.85 7.18365 126.012 6.76008 126.335 6.51805C126.672 6.26256 127.123 6.13482 127.689 6.13482C128.255 6.13482 128.707 6.26256 129.043 6.51805C129.38 6.76008 129.549 7.18365 129.549 7.78875V10.0074H130.741V7.78875C130.741 7.18365 130.91 6.76008 131.246 6.51805C131.583 6.26256 132.035 6.13482 132.6 6.13482C133.166 6.13482 133.611 6.26256 133.934 6.51805C134.271 6.76008 134.44 7.18365 134.44 7.78875V10.0074H134.662C135.174 10.0074 135.551 10.1486 135.794 10.431C136.036 10.7134 136.158 11.0361 136.158 11.3992C136.158 11.7622 136.023 12.0984 135.753 12.4076C135.497 12.7035 135.134 12.8514 134.662 12.8514H125.789ZM138.522 10.9151H137.471C136.973 10.9151 136.602 10.7806 136.36 10.5117C136.117 10.2293 135.996 9.87297 135.996 9.44268C135.996 9.01239 136.104 8.66277 136.319 8.39384C136.548 8.11147 136.932 7.97028 137.471 7.97028H138.522V6.84076H137.471C136.973 6.84076 136.602 6.7063 136.36 6.43737C136.117 6.16844 135.996 5.81883 135.996 5.38853C135.996 4.95824 136.104 4.60191 136.319 4.31953C136.548 4.03715 136.932 3.89597 137.471 3.89597H138.522C138.522 3.58669 138.576 3.31776 138.684 3.08917C138.805 2.84713 138.953 2.64544 139.129 2.48408C139.317 2.32272 139.526 2.2017 139.755 2.12102C139.998 2.04034 140.247 2 140.503 2C140.759 2 141.008 2.04706 141.251 2.14119C141.493 2.22187 141.709 2.34289 141.897 2.50425C142.086 2.6656 142.234 2.8673 142.342 3.10934C142.463 3.35138 142.524 3.63376 142.524 3.95648V13.0127H138.522V10.9151ZM126.052 5.54989C125.581 5.54989 125.21 5.40198 124.941 5.10616C124.685 4.79689 124.557 4.44728 124.557 4.05732C124.557 3.66737 124.678 3.31776 124.92 3.00849C125.163 2.69922 125.54 2.54459 126.052 2.54459H134.177C134.689 2.54459 135.066 2.69922 135.309 3.00849C135.551 3.31776 135.673 3.66737 135.673 4.05732C135.673 4.44728 135.538 4.79689 135.268 5.10616C135.012 5.40198 134.649 5.54989 134.177 5.54989H126.052ZM137.532 18.2771C137.95 18.2771 138.233 18.1897 138.381 18.0149C138.542 17.8401 138.623 17.6249 138.623 17.3694C138.623 17.1139 138.542 16.9055 138.381 16.7442C138.233 16.5828 137.95 16.5021 137.532 16.5021H130.579C130.162 16.5021 129.872 16.5828 129.71 16.7442C129.562 16.9055 129.488 17.1139 129.488 17.3694C129.488 17.6249 129.562 17.8401 129.71 18.0149C129.872 18.1897 130.162 18.2771 130.579 18.2771H137.532Z" fill="#3D3D42"/>
<path d="M145.729 16.7845C146.524 16.6904 147.259 16.5223 147.932 16.2803C148.62 16.0382 149.206 15.6684 149.691 15.1709C150.189 14.6734 150.58 14.0212 150.863 13.2144C151.146 12.3942 151.287 11.3655 151.287 10.1285V6.76008C151.287 6.61217 151.24 6.49115 151.146 6.39703C151.065 6.3029 150.944 6.25584 150.782 6.25584H146.174C145.864 6.25584 145.601 6.20205 145.386 6.09448C145.184 5.98691 145.009 5.85244 144.86 5.69108C144.726 5.51628 144.625 5.32803 144.557 5.12633C144.503 4.91118 144.476 4.70276 144.476 4.50106C144.476 4.29936 144.503 4.09766 144.557 3.89597C144.625 3.68082 144.726 3.49257 144.86 3.33121C144.995 3.16985 145.17 3.03539 145.386 2.92781C145.601 2.82024 145.864 2.76645 146.174 2.76645H152.116C153.261 2.76645 154.076 3.02194 154.562 3.53291C155.047 4.04388 155.289 4.76999 155.289 5.71125V10.1486C155.289 11.937 155.06 13.4498 154.602 14.6868C154.144 15.9239 153.504 16.9391 152.682 17.7325C151.874 18.5124 150.91 19.0906 149.792 19.4671C148.687 19.8436 147.481 20.0655 146.174 20.1327C145.932 20.1461 145.689 20.1193 145.446 20.052C145.217 19.9848 145.009 19.8772 144.82 19.7293C144.645 19.5814 144.503 19.3999 144.396 19.1847C144.288 18.9561 144.234 18.6939 144.234 18.3981C144.234 17.9678 144.355 17.6115 144.598 17.3291C144.84 17.0333 145.217 16.8517 145.729 16.7845ZM157.735 3.95648C157.735 3.31104 157.937 2.82696 158.341 2.50425C158.745 2.16808 159.21 2 159.736 2C159.992 2 160.241 2.04706 160.483 2.14119C160.726 2.22187 160.935 2.34289 161.11 2.50425C161.298 2.6656 161.447 2.8673 161.554 3.10934C161.676 3.35138 161.736 3.63376 161.736 3.95648V9.05945H162.403C162.713 9.05945 162.969 9.11323 163.171 9.22081C163.373 9.32838 163.535 9.46957 163.656 9.64437C163.778 9.80573 163.865 9.99398 163.919 10.2091C163.973 10.4108 164 10.6125 164 10.8142C164 11.0159 163.973 11.2243 163.919 11.4395C163.865 11.6412 163.778 11.8294 163.656 12.0042C163.535 12.1656 163.367 12.3001 163.151 12.4076C162.949 12.5152 162.7 12.569 162.403 12.569H161.736V20.9395H157.735V3.95648Z" fill="#3D3D42"/>
<path fill-rule="evenodd" clip-rule="evenodd" d="M4.05727 22.701L4.03831 22.6955C3.40173 22.5077 2.77695 22.1777 2.26973 21.6413C1.76698 21.1096 1.47356 20.475 1.31485 19.8431C1.30931 19.821 1.30414 19.7989 1.29935 19.7766C1.17942 19.2195 1.13304 18.6127 1.13304 17.9851V15.9308C1.13304 15.0302 1.36547 14.0608 2.03884 13.2875C1.44439 12.7508 0.971525 12.1092 0.622201 11.3806C0.180637 10.4597 0 9.44424 0 8.39842V7.04904C0 6.00627 0.179587 4.99368 0.618353 4.07487C1.02814 3.2037 1.61233 2.45272 2.37356 1.85882L2.39422 1.84292C3.14079 1.27578 3.99324 0.880644 4.91665 0.633173L4.92592 0.630689C5.83482 0.391704 6.80057 0.28196 7.80991 0.28196C8.81679 0.28196 9.77813 0.391189 10.6784 0.631955C11.6095 0.877349 12.4708 1.27216 13.2158 1.85084C13.5283 2.08932 13.8118 2.35395 14.0659 2.64252C14.2662 2.02438 14.6247 1.44299 15.1946 0.970306L15.2197 0.949779C15.9993 0.323936 16.9269 0 17.9264 0C18.4159 0 18.8932 0.0870285 19.3477 0.254993C19.8406 0.419041 20.2959 0.678187 20.6904 1.03525C20.8265 1.15417 20.9507 1.28108 21.0635 1.41446C21.902 0.490837 23.0713 0.28196 23.9882 0.28196H36.5326C37.6836 0.28196 39.0447 0.497345 40.0225 1.45171C40.0843 1.51015 40.1433 1.56986 40.1998 1.63074C40.4369 1.43529 40.6932 1.27241 40.9611 1.13907C41.5265 0.8577 42.1176 0.765322 42.6551 0.765322H52.0229C52.5604 0.765322 53.1515 0.857701 53.7168 1.13907C53.9279 1.24412 54.1368 1.37179 54.3348 1.52588C54.4887 1.32861 54.6681 1.14226 54.8754 0.970304C55.6532 0.325116 56.5866 0 57.5869 0C58.5873 0 59.5207 0.325114 60.2985 0.970307C60.4972 1.1351 60.6702 1.3131 60.8197 1.50126C60.9207 1.38776 61.0299 1.27904 61.1478 1.17614C61.5403 0.820667 61.9969 0.553269 62.5031 0.385312L62.5336 0.375445C62.9974 0.229657 63.4735 0.161121 63.9522 0.161121C64.953 0.161121 65.8966 0.478218 66.684 1.13143C67.4248 1.7459 67.8047 2.54429 67.9488 3.3634H77.5285C78.4431 3.3634 79.6145 3.59961 80.4161 4.59331C80.9656 5.26226 81.2514 6.06661 81.2514 6.92819C81.2514 7.46409 81.1414 7.97886 80.9246 8.4523C81.017 8.54453 81.1057 8.64482 81.19 8.7538C81.7158 9.42106 82 10.2168 82 11.0771C82 11.9605 81.7019 12.7784 81.1415 13.4559C80.9385 13.7068 80.7121 13.9096 80.4721 14.0724C80.7079 14.4155 80.8985 14.7881 81.0427 15.1858C81.3131 15.8821 81.4335 16.615 81.4335 17.3608C81.4335 18.894 80.9411 20.3146 79.8219 21.4104C78.6216 22.6001 76.9671 23 75.2827 23H65.7327C64.1819 23 62.6563 22.661 61.4873 21.6787C61.1877 22.4179 60.4602 22.9396 59.6102 22.9396H55.5637C54.765 22.9396 54.0744 22.479 53.7454 21.81C53.7177 21.8112 53.6898 21.8117 53.6618 21.8117H49.858C49.2867 21.8117 48.742 21.5713 48.3585 21.1499C47.9749 20.7284 47.7882 20.1652 47.8445 19.5993C47.8626 19.4172 47.876 19.2447 47.885 19.0815C47.8582 19.1111 47.8311 19.1406 47.8039 19.1699L47.7933 19.1813C46.8002 20.2357 45.6408 21.0517 44.3231 21.6082C43.8519 21.8112 43.3611 21.9053 42.8735 21.912C42.4349 21.9305 42.0031 21.8804 41.5849 21.7687C41.1472 21.6614 40.739 21.4828 40.3665 21.2429C40.3023 21.3114 40.2358 21.3787 40.1669 21.4448C38.9656 22.6117 37.3169 23 35.6423 23H26.0924C24.4991 23 22.9294 22.6485 21.746 21.6094C21.7139 21.6503 21.6808 21.6907 21.6467 21.7307C20.8533 22.6975 19.7089 22.9396 18.7964 22.9396H6.02941C5.35021 22.9396 4.67611 22.877 4.05727 22.701ZM20.0913 20.4422C20.2524 20.2578 20.3654 20.0543 20.4303 19.8316C20.4741 19.6813 20.496 19.5223 20.496 19.3546C20.496 18.9518 20.3678 18.596 20.1115 18.2872C20.1052 18.2792 20.0987 18.2713 20.0921 18.2635C20.0585 18.2237 20.0221 18.1866 19.9827 18.152C19.9785 18.1483 19.9742 18.1446 19.9699 18.141C19.7057 17.9162 19.3146 17.8039 18.7964 17.8039H7.80991C7.5806 17.8039 7.43223 17.777 7.36479 17.7233C7.29734 17.6696 7.26362 17.5286 7.26362 17.3004V15.9308C7.26362 15.6282 7.22542 15.361 7.14902 15.1292C7.05255 14.8364 6.89516 14.6001 6.67687 14.4203C6.2857 14.0981 5.80685 13.937 5.24033 13.937C5.21126 13.937 5.18239 13.9374 5.15371 13.9382C5.15185 13.9383 5.14998 13.9383 5.14811 13.9384C4.63171 13.9547 4.17876 14.1088 3.78925 14.4006C3.78058 14.4071 3.77193 14.4137 3.76332 14.4203C3.35867 14.7426 3.15634 15.2461 3.15634 15.9308V17.9851C3.15634 18.5222 3.1968 18.9787 3.27773 19.3546C3.37215 19.7306 3.52727 20.0327 3.74309 20.2609C3.95891 20.4892 4.24891 20.657 4.61311 20.7644C4.99079 20.8719 5.46289 20.9256 6.02941 20.9256H18.7964C19.4034 20.9256 19.835 20.7644 20.0913 20.4422ZM9.21295 15.0689C9.25606 15.3106 9.27871 15.5525 9.28504 15.7898H13.8596V13.0091C13.6604 13.2116 13.4457 13.401 13.2157 13.5765C12.4708 14.1552 11.6094 14.55 10.6783 14.7954C10.2059 14.9217 9.71672 15.0118 9.21295 15.0689ZM10.1569 12.8494C10.8718 12.6614 11.4788 12.3727 11.9779 11.9834C12.4905 11.594 12.8884 11.1039 13.1716 10.5131C13.4549 9.92236 13.5965 9.21745 13.5965 8.39842V7.04904C13.5965 6.23001 13.4549 5.5251 13.1716 4.93432C12.8884 4.33012 12.4905 3.83333 11.9779 3.44396C11.4788 3.05458 10.8718 2.76591 10.1569 2.57793C9.45552 2.38996 8.67318 2.29597 7.80991 2.29597C6.94664 2.29597 6.15755 2.38996 5.44266 2.57793C4.74125 2.76591 4.13426 3.05458 3.62169 3.44396C3.12261 3.83333 2.73144 4.33012 2.44818 4.93432C2.16492 5.5251 2.02329 6.23001 2.02329 7.04904V8.39842C2.02329 9.21745 2.16492 9.92236 2.44818 10.5131C2.73144 11.1039 3.12261 11.594 3.62169 11.9834C3.69167 12.0365 3.7634 12.0878 3.8369 12.1372C4.2493 12.4144 4.71711 12.6325 5.24033 12.7916C5.30687 12.8118 5.37432 12.8311 5.44266 12.8494C6.14061 13.0329 6.90927 13.1268 7.74865 13.1312C7.76902 13.1313 7.78945 13.1313 7.80991 13.1313C7.95704 13.1313 8.10183 13.1286 8.24426 13.1232C8.93751 13.0966 9.57507 13.0053 10.1569 12.8494ZM9.12505 5.65937C8.78783 5.39083 8.34945 5.25657 7.80991 5.25657C7.27036 5.25657 6.83198 5.39083 6.49477 5.65937C6.15755 5.91448 5.98895 6.32399 5.98895 6.88791V8.55954C5.98895 9.12347 6.15755 9.53298 6.49477 9.78809C6.83198 10.0432 7.27036 10.1708 7.80991 10.1708C8.34945 10.1708 8.78783 10.0432 9.12505 9.78809C9.46226 9.53298 9.63087 9.12347 9.63087 8.55954V6.88791C9.63087 6.32399 9.46226 5.91448 9.12505 5.65937ZM21.9649 17.4095C21.9649 17.4067 21.9649 17.4038 21.9649 17.401C21.9649 16.3572 22.2833 15.5036 22.9202 14.8402C22.9387 14.8209 22.9575 14.8018 22.9765 14.7828C23.0157 14.7438 23.0562 14.7059 23.0979 14.6691C23.773 14.0736 24.7712 13.7758 26.0924 13.7758H35.6423C36.3437 13.7758 36.9507 13.8631 37.4633 14.0377C37.9259 14.1952 38.317 14.4128 38.6368 14.6907C38.6713 14.7207 38.7051 14.7514 38.738 14.7828C38.7587 14.8019 38.7791 14.8212 38.7992 14.8407C39.1187 15.1506 39.3545 15.514 39.5068 15.9308C39.5217 15.9686 39.536 16.0066 39.5497 16.045C39.6964 16.4577 39.7698 16.9097 39.7698 17.401C39.7698 17.4733 39.7683 17.5446 39.7654 17.615C39.7311 18.4239 39.4997 19.1033 39.0713 19.6533C38.9766 19.7749 38.8722 19.8902 38.7582 19.9991C38.0838 20.657 37.0451 20.986 35.6423 20.986H26.0924C24.6896 20.986 23.6509 20.657 22.9765 19.9991C22.8008 19.8312 22.648 19.6483 22.5181 19.4503C22.4974 19.4188 22.4773 19.3869 22.4578 19.3546C22.1304 18.8134 21.9661 18.165 21.9649 17.4095ZM41.4411 19.5359C41.6434 19.6702 41.8592 19.7642 42.0885 19.8179C42.3313 19.885 42.5741 19.9118 42.8169 19.8984C43.0732 19.8984 43.3092 19.8514 43.5251 19.7574C44.5772 19.3144 45.5079 18.6632 46.3172 17.8039C46.7002 17.3909 47.0484 16.9312 47.362 16.425C47.7109 15.8615 48.0169 15.2403 48.2798 14.5613C48.9134 14.9907 49.3651 15.6347 49.635 16.4934C49.6351 16.4938 49.6353 16.4943 49.6354 16.4947C49.7622 16.8733 49.8471 17.303 49.8901 17.7837C49.9432 18.3772 49.9325 19.0485 49.858 19.7977H53.6618C53.6857 19.1831 53.6857 18.6069 53.6618 18.0691C53.6575 17.9727 53.6524 17.8776 53.6466 17.7837C53.6233 17.4103 53.5879 17.0564 53.5404 16.722C53.5165 16.5541 53.4895 16.391 53.4594 16.2329C53.2706 15.2393 52.9806 14.4002 52.5894 13.7154C52.1982 13.0172 51.7059 12.4533 51.1124 12.0236C50.5324 11.594 49.8782 11.2516 49.1498 10.9965C49.2038 10.5937 49.2442 10.1775 49.2712 9.74781C49.2982 9.31815 49.3117 8.86836 49.3117 8.39842V6.22329H52.0229C52.3196 6.22329 52.5759 6.1763 52.7917 6.08231C53.0076 5.9749 53.1829 5.84063 53.3178 5.67951C53.4115 5.56756 53.4857 5.44588 53.5404 5.31448C53.5644 5.25677 53.5846 5.19719 53.6011 5.13573C53.6685 4.9209 53.7022 4.71278 53.7022 4.51138C53.7022 4.34355 53.6788 4.17571 53.632 4.00788C53.6226 3.97431 53.6123 3.94075 53.6011 3.90718C53.5863 3.84849 53.5686 3.79181 53.5478 3.73713C53.4925 3.59166 53.4158 3.46036 53.3178 3.34326C53.1964 3.18214 53.0278 3.04787 52.812 2.94045C52.5962 2.83304 52.3331 2.77933 52.0229 2.77933H42.6551C42.3448 2.77933 42.0818 2.83304 41.866 2.94045C41.6501 3.04787 41.4681 3.18214 41.3197 3.34326C41.2634 3.41045 41.213 3.48232 41.1685 3.55886C41.1063 3.66584 41.0555 3.78194 41.0162 3.90718C40.9622 4.10858 40.9353 4.30998 40.9353 4.51138C40.9353 4.53146 40.9356 4.5516 40.9363 4.5718C40.9423 4.75434 40.9757 4.94231 41.0364 5.13573C41.0621 5.2125 41.0927 5.28635 41.1282 5.35727C41.1679 5.43654 41.2137 5.51215 41.2657 5.58411C41.2892 5.61666 41.3139 5.64846 41.3399 5.67951C41.4748 5.84063 41.6501 5.9749 41.866 6.08231C42.0818 6.1763 42.3448 6.22329 42.6551 6.22329H45.3663V8.29772C45.3663 9.42557 45.2921 10.4326 45.1437 11.3187C44.9953 12.1915 44.766 12.9769 44.4558 13.6751C44.1455 14.3599 43.7544 14.9641 43.2823 15.4877C42.8571 15.9608 42.3507 16.3876 41.7632 16.7683C41.717 16.7983 41.6704 16.8279 41.6232 16.8573C41.3813 17.0097 41.1949 17.191 41.0638 17.401C40.9756 17.5424 40.9125 17.6968 40.8745 17.8643C40.7801 18.2805 40.8273 18.6766 41.0162 19.0525C41.1085 19.2495 41.246 19.408 41.4287 19.5279C41.4328 19.5306 41.4369 19.5332 41.4411 19.5359ZM39.228 6.06343C39.2048 6.56432 39.1561 7.02713 39.0819 7.45184C39.0703 7.52623 39.0585 7.59879 39.0464 7.66953C38.9607 8.17324 38.8646 8.58404 38.7582 8.90193H34.7925C34.9139 8.5394 35.0151 8.14331 35.096 7.71366C35.0997 7.69362 35.1033 7.67348 35.1068 7.65324C35.1485 7.41182 35.1784 7.15671 35.1965 6.88792C35.2105 6.68118 35.2174 6.46636 35.2174 6.24343V5.96147C35.2174 5.66608 35.0488 5.51839 34.7116 5.51839H23.9882C23.3272 5.51839 22.8484 5.36398 22.5516 5.05517C22.2684 4.74635 22.1267 4.35697 22.1267 3.88704C22.1267 3.45738 22.2684 3.08815 22.5516 2.77933C22.8349 2.45709 23.3137 2.29597 23.9882 2.29597H36.5326C37.5172 2.29597 38.2119 2.49737 38.6166 2.90017C38.794 3.06545 38.9339 3.26097 39.036 3.48672C39.1678 3.77795 39.2369 4.1195 39.2433 4.51138C39.2436 4.53139 39.2438 4.55153 39.2438 4.5718V5.35727C39.2438 5.47139 39.2426 5.58378 39.2403 5.69444C39.24 5.70697 39.2398 5.71947 39.2395 5.73196C39.2368 5.84424 39.233 5.95473 39.228 6.06343ZM21.9932 7.10941V7.78051C22.3755 7.68649 22.7548 7.65324 23.0979 7.65324H25.5252C25.5332 7.613 25.5419 7.57271 25.5513 7.5324H23.9882C23.3694 7.5324 22.6526 7.43804 21.9932 7.10941ZM27.7132 7.5324C27.8199 7.36921 27.9473 7.23494 28.0954 7.1296C28.2843 6.99533 28.5001 6.90134 28.7429 6.84763C28.9992 6.7805 29.2622 6.74693 29.532 6.74693C29.7883 6.74693 30.0378 6.7805 30.2806 6.84763C30.5369 6.90134 30.7594 7.00204 30.9483 7.14974C31.1004 7.25071 31.2259 7.37827 31.3247 7.5324C31.3572 7.58322 31.3869 7.63692 31.4136 7.69352C31.535 7.90835 31.5957 8.17688 31.5957 8.49912V9.66725H38.6368C38.6781 9.66725 38.7185 9.66796 38.7582 9.66939C39.3148 9.6894 39.7127 9.8498 39.9519 10.1506C40.0146 10.2294 40.0696 10.3106 40.117 10.3942C40.2632 10.6526 40.3364 10.9339 40.3364 11.2382C40.3364 11.6544 40.2015 12.0236 39.9317 12.3459C39.7941 12.519 39.6058 12.6456 39.367 12.7257C39.1612 12.7947 38.9178 12.8292 38.6368 12.8292H23.0979C22.807 12.8292 22.5549 12.7922 22.3414 12.7182C22.2109 12.673 22.0948 12.6139 21.9932 12.5409C21.9143 12.4842 21.8442 12.4192 21.7828 12.3459C21.5265 12.0236 21.3983 11.6544 21.3983 11.2382C21.3983 10.8354 21.5265 10.4729 21.7828 10.1506C21.8429 10.075 21.913 10.0083 21.9932 9.95043C22.2547 9.76164 22.623 9.66725 23.0979 9.66725H27.4682V8.49912C27.4682 8.17688 27.5222 7.90163 27.6301 7.67338C27.6562 7.6242 27.684 7.57721 27.7132 7.5324ZM19.9699 16.2531H15.8828V4.00788C15.8828 3.34997 16.0852 2.85318 16.4898 2.51751C16.908 2.18184 17.3868 2.01401 17.9264 2.01401C18.1827 2.01401 18.4322 2.061 18.675 2.15499C18.9313 2.23555 19.1538 2.36311 19.3427 2.53765C19.5315 2.69877 19.6799 2.90689 19.7878 3.162C19.9092 3.40368 19.9699 3.68564 19.9699 4.00788V16.2531ZM40.9781 8.35394C41.178 8.5044 41.3668 8.68486 41.5383 8.90051C42.0713 9.5707 42.3596 10.3717 42.3596 11.2382C42.3596 12.1216 42.0616 12.9394 41.5013 13.6169C41.312 13.8509 41.1024 14.043 40.8804 14.1999C40.9891 14.3626 41.0879 14.532 41.1766 14.7076C41.4026 14.5258 41.601 14.3378 41.7744 14.1448L41.7764 14.1426C42.0991 13.7846 42.3784 13.3597 42.6084 12.8538C42.8393 12.3324 43.0243 11.714 43.1485 10.9845C43.2742 10.2319 43.343 9.33987 43.343 8.29772V8.2373H42.6551C42.1499 8.2373 41.5938 8.16212 41.055 7.92746C41.0548 7.92739 41.0552 7.92753 41.055 7.92746C41.031 8.0726 41.0051 8.21477 40.9781 8.35394ZM55.6017 3.54416C55.5763 3.68864 55.5637 3.84322 55.5637 4.00788V20.9256H59.6102V4.00788C59.6102 3.34997 59.4079 2.85318 59.0033 2.51751C58.5986 2.18184 58.1265 2.01401 57.5869 2.01401C57.0474 2.01401 56.5753 2.18184 56.1706 2.51751C55.8673 2.76917 55.6776 3.11138 55.6017 3.54416ZM61.6335 16.8269C61.6699 16.4944 61.7414 16.1823 61.848 15.8905C62.0234 15.434 62.2796 15.0447 62.6169 14.7224C62.6318 14.7087 62.6469 14.6951 62.6622 14.6816C62.6872 14.6595 62.7125 14.6378 62.7383 14.6165C63.0657 14.3452 63.4568 14.1322 63.9118 13.9772C64.4243 13.7893 65.0313 13.6953 65.7327 13.6953H75.2827C75.9841 13.6953 76.5911 13.7893 77.1036 13.9772C77.5662 14.1348 77.9574 14.3524 78.2771 14.6302C78.2967 14.6472 78.3159 14.6644 78.3349 14.6818C78.3495 14.6952 78.364 14.7087 78.3783 14.7224C78.729 15.0447 78.9853 15.434 79.1472 15.8905C79.3225 16.3336 79.4102 16.8237 79.4102 17.3608C79.4102 18.4483 79.073 19.3211 78.3985 19.979C77.7241 20.6503 76.6855 20.986 75.2827 20.986H65.7327C64.3299 20.986 63.2913 20.6503 62.6169 19.979C62.0553 19.4312 61.7275 18.7344 61.6335 17.8886C61.6147 17.7187 61.6052 17.5427 61.6052 17.3608C61.6052 17.1773 61.6147 16.9994 61.6335 16.8269ZM78.8976 12.5972C79.1892 12.521 79.414 12.3835 79.572 12.1848C79.8418 11.8625 79.9767 11.4933 79.9767 11.0771C79.9767 10.6743 79.8486 10.3117 79.5923 9.98949C79.5883 9.9843 79.5843 9.97916 79.5803 9.97405C79.3224 9.64868 78.888 9.48599 78.2771 9.48599H62.7383C62.294 9.48599 61.9431 9.57203 61.6855 9.74412C61.6678 9.75599 61.6504 9.76828 61.6335 9.78097C61.5534 9.84124 61.4832 9.91075 61.4231 9.98949C61.1668 10.3117 61.0387 10.6743 61.0387 11.0771C61.0387 11.4933 61.1668 11.8625 61.4231 12.1848C61.4845 12.2581 61.5547 12.3231 61.6335 12.3798C61.7679 12.4763 61.9277 12.5486 62.1128 12.5966C62.2964 12.6443 62.5048 12.6681 62.7383 12.6681H78.2771C78.5097 12.6681 78.7166 12.6445 78.8976 12.5972ZM75.0803 17.9046C75.2287 17.7703 75.3029 17.589 75.3029 17.3608C75.3029 17.1325 75.2287 16.958 75.0803 16.8371C74.9455 16.7163 74.6757 16.6559 74.271 16.6559H66.7444C66.3397 16.6559 66.0632 16.7163 65.9148 16.8371C65.7799 16.958 65.7125 17.1325 65.7125 17.3608C65.7125 17.589 65.7799 17.7703 65.9148 17.9046C66.0632 18.0388 66.3397 18.106 66.7444 18.106H74.271C74.6757 18.106 74.9455 18.0388 75.0803 17.9046ZM53.5404 7.95389V11.5486C53.1794 11.1193 52.7704 10.7348 52.3116 10.4015C51.9886 10.1628 51.6503 9.94677 51.2978 9.7529C51.3227 9.31531 51.335 8.86367 51.335 8.39842V8.2373H52.0229C52.5089 8.2373 53.0312 8.16385 53.5404 7.95389ZM35.44 17.9247C35.5884 17.8039 35.6626 17.6293 35.6626 17.401C35.6626 17.1728 35.5884 17.005 35.44 16.8975C35.3051 16.7901 35.0353 16.7364 34.6307 16.7364H27.104C26.6994 16.7364 26.4229 16.7901 26.2745 16.8975C26.1396 17.005 26.0721 17.1728 26.0721 17.401C26.0721 17.6293 26.1396 17.8039 26.2745 17.9247C26.4229 18.0455 26.6994 18.106 27.104 18.106H34.6307C35.0353 18.106 35.3051 18.0455 35.44 17.9247ZM7.78838 15.7894C7.78839 15.7894 7.78999 15.7895 7.79306 15.7896ZM79.1145 7.54463C79.1902 7.35423 79.2281 7.14875 79.2281 6.92819C79.2281 6.52539 79.0999 6.16959 78.8437 5.86077C78.5874 5.53853 78.149 5.37741 77.5285 5.37741H66.542C66.3127 5.37741 66.1644 5.35055 66.0969 5.29685C66.0295 5.24314 65.9958 5.10887 65.9958 4.89404V4.18914C65.9958 3.5178 65.7934 3.0143 65.3888 2.67863C64.9841 2.34297 64.5053 2.17513 63.9522 2.17513C63.669 2.17513 63.3992 2.21541 63.1429 2.29597C62.9001 2.37653 62.6843 2.50409 62.4955 2.67863C62.3066 2.83975 62.1515 3.04787 62.0301 3.30298C61.9222 3.55808 61.8682 3.85347 61.8682 4.18914V5.67951C61.8682 6.46243 61.992 7.06824 62.2395 7.49697C62.3189 7.63438 62.4109 7.75361 62.5157 7.85464C62.5829 7.9155 62.6571 7.97177 62.7383 8.02344C63.194 8.31371 63.8684 8.45884 64.7615 8.45884H77.5285C77.8179 8.45884 78.0675 8.42527 78.2771 8.35812C78.5072 8.28443 78.6893 8.17031 78.8234 8.01576C78.9503 7.87059 79.0473 7.71354 79.1145 7.54463ZM66.5205 3.36299C66.5205 3.36297 66.5221 3.36301 66.5252 3.3632ZM68.0191 4.89404V4.89043C68.0193 4.8981 68.0191 4.89958 68.0191 4.89404ZM8.01473 8.61329C8.01473 8.6133 8.01467 8.61293 8.01457 8.61217Z" fill="#3D3D42"/>
</svg>
