<svg width="24" height="24" viewBox="0 0 24 24" fill="none" xmlns="http://www.w3.org/2000/svg">
<g clip-path="url(#clip0_107_1371)">
<path d="M21.89 10.56C21.8 9.98999 21.39 9.49999 20.83 9.36999C20.06 9.18999 19.37 8.71999 18.95 7.98999C18.53 7.25999 18.47 6.42999 18.7 5.66999C18.87 5.10999 18.65 4.48999 18.18 4.12999C17.44 3.54999 16.61 3.06999 15.72 2.71999C15.18 2.49999 14.53 2.60999 14.13 3.03999C13.59 3.61999 12.84 3.96999 12 3.96999C11.16 3.96999 10.41 3.60999 9.87 3.03999C9.47 2.60999 8.82 2.49999 8.28 2.71999C7.39 3.07999 6.56 3.54999 5.82 4.13999C5.36 4.49999 5.13 5.10999 5.3 5.67999C5.53 6.43999 5.46 7.25999 5.05 7.98999C4.63 8.70999 3.94 9.17999 3.17 9.36999C2.61 9.49999 2.2 9.98999 2.11 10.56C2.04 11.04 2 11.52 2 12.02C2 12.52 2.04 12.99 2.11 13.46C2.2 14.03 2.61 14.51 3.17 14.65C3.94 14.83 4.62 15.3 5.04 16.02C5.46 16.74 5.52 17.57 5.29 18.33C5.12 18.89 5.35 19.5 5.81 19.87C6.55 20.45 7.38 20.93 8.27 21.29C8.81 21.51 9.46 21.4 9.86 20.97C10.4 20.4 11.15 20.04 11.98 20.04C12.81 20.04 13.57 20.4 14.11 20.98C14.51 21.41 15.15 21.52 15.7 21.3C16.59 20.95 17.42 20.47 18.16 19.89C18.62 19.53 18.85 18.91 18.68 18.35C18.45 17.59 18.51 16.76 18.93 16.04C19.35 15.31 20.04 14.84 20.82 14.66C21.38 14.53 21.8 14.04 21.89 13.47C21.96 13 22 12.51 22 12.02C22 11.53 21.96 11.05 21.89 10.58V10.56ZM12 15.27C10.19 15.27 8.73 13.81 8.73 12C8.73 10.19 10.19 8.72999 12 8.72999C13.81 8.72999 15.27 10.19 15.27 12C15.27 13.81 13.81 15.27 12 15.27Z" fill="#5D5E65"/>
</g>
<defs>
<clipPath id="clip0_107_1371">
<rect width="24" height="24" fill="white"/>
</clipPath>
</defs>
</svg>
