<svg width="48" height="62" viewBox="0 0 48 62" fill="none" xmlns="http://www.w3.org/2000/svg">
<path d="M19.2612 51.1092C19.2612 51.1092 28.2074 57.1117 35.821 49.4951C35.821 49.4951 27.9977 43.5557 19.2612 51.1092Z" fill="#FFF7DB"/>
<path d="M9.82141 55.8758C9.82141 55.8758 15.7691 64.9678 25.6901 60.9956C25.6901 60.9956 20.7543 52.408 9.82141 55.8758Z" fill="#FFF7DB"/>
<path d="M28.2815 41.7524C28.2815 41.7524 37.4621 46.7838 43.126 36.4182C43.126 36.4182 35.6976 31.5381 28.2815 41.7524V41.7524Z" fill="#FFF7DB"/>
<path d="M34.9202 28.4613C34.9202 28.4613 38.4493 19.2432 48.0001 20.5294C48.0001 20.5294 47.1117 30.7563 34.9202 28.4613V28.4613Z" fill="#FFF7DB"/>
<path d="M1.0849 60.3777C0.578978 60.3777 0.134753 60.0246 0.0236963 59.495C-0.0996996 58.8897 0.270488 58.297 0.862789 58.1709C37.9556 50.0247 36.8697 12.5724 36.808 10.9835C36.7833 10.3656 37.2522 9.84859 37.8569 9.82337C38.4615 9.81076 38.9674 10.2773 38.9921 10.8952C39.0045 11.2988 40.2384 51.8028 1.3317 60.3525C1.25766 60.3651 1.17128 60.3777 1.09724 60.3777H1.0849Z" fill="#FFF7DB"/>
<path d="M37.5237 18.7262C37.5237 18.7262 45.8776 10.5421 37.8693 0C37.8693 0 30.0953 8.33535 37.5237 18.7262Z" fill="#FFF7DB"/>
<path d="M15.7936 53.3917C15.7936 53.3917 10.0064 45.069 16.2255 36.4436C16.2255 36.4436 22.7038 42.3956 15.7936 53.3917Z" fill="#FFF7DB"/>
<path d="M25.6161 45.2202C25.6161 45.2202 19.2118 39.1169 23.8392 28.6504C23.8392 28.6504 31.0332 31.8282 25.6161 45.2202Z" fill="#FFF7DB"/>
<path d="M32.5386 33.7323C32.5386 33.7323 25.6038 28.2721 29.2563 17.4021C29.2563 17.4021 36.7094 19.8737 32.5386 33.7323Z" fill="#FFF7DB"/>
</svg>
