<svg width="350" height="184" viewBox="0 0 350 184" fill="none" xmlns="http://www.w3.org/2000/svg">
<g clip-path="url(#clip0_173_4880)">
<rect width="350" height="184" fill="url(#paint0_linear_173_4880)"/>
<g opacity="0.6" filter="url(#filter0_f_173_4880)">
<path d="M62.2415 67.224C61.3971 63.3083 62.7193 59.1391 66.2079 54.7154C69.6956 50.2934 75.2371 47.2618 82.8297 45.6245C90.5841 43.9523 97.2832 44.5148 102.927 47.309C108.571 50.1059 112.018 54.3993 113.267 60.1906C114.955 68.0226 111.956 76.4815 104.272 85.566C102.509 87.7391 101.298 89.7724 100.639 91.6641C99.9774 93.5573 99.6821 95.1572 99.7516 96.4649C99.8195 97.7752 100.136 99.7339 100.699 102.344C101.42 105.69 99.3722 107.88 94.5559 108.919C92.0249 109.465 90.1489 109.281 88.9268 108.368C87.7049 107.455 86.7557 105.431 86.0796 102.295C84.4508 94.7423 85.8681 88.0457 90.3335 82.2044C90.5262 81.9105 91.4039 80.8385 92.9717 78.9879C94.5367 77.1382 95.6095 75.7699 96.1883 74.8888C96.767 74.007 97.3438 72.7271 97.9223 71.045C98.4988 69.3639 98.6238 67.7603 98.2947 66.2342C97.7229 63.5824 96.2672 61.7732 93.9302 60.8049C91.5925 59.8381 88.7972 59.7047 85.5439 60.4063C82.7774 61.0028 80.5975 61.9444 79.0029 63.2331C77.407 64.5214 76.4433 65.7742 76.1087 66.9866C75.7733 68.2015 75.2148 69.364 74.4342 70.4772C73.6536 71.5904 72.5298 72.3042 71.066 72.6198C69.1944 73.0234 67.3752 72.7758 65.6069 71.8764C63.8384 70.978 62.7165 69.4268 62.2415 67.224ZM88.9799 128.818C88.4172 126.208 88.879 123.781 90.3692 121.539C91.8585 119.297 93.9005 117.896 96.4994 117.336C99.1113 116.772 101.539 117.232 103.78 118.711C106.022 120.192 107.415 122.197 107.96 124.725C108.506 127.255 108.062 129.655 106.63 131.927C105.198 134.201 103.175 135.618 100.563 136.181C97.9491 136.745 95.5029 136.292 93.2214 134.819C90.9374 133.348 89.5254 131.348 88.9799 128.818Z" fill="white"/>
</g>
<g filter="url(#filter1_d_173_4880)">
<path d="M62.2415 68.3974C61.3971 64.4817 62.7193 60.3125 66.2079 55.8888C69.6956 51.4668 75.2371 48.4352 82.8297 46.7979C90.5841 45.1258 97.2832 45.6882 102.927 48.4824C108.571 51.2793 112.018 55.5727 113.267 61.364C114.955 69.196 111.956 77.6549 104.272 86.7394C102.509 88.9125 101.298 90.9458 100.639 92.8375C99.9774 94.7307 99.6821 96.3306 99.7516 97.6383C99.8195 98.9486 100.136 100.907 100.699 103.517C101.42 106.864 99.3722 109.054 94.5559 110.092C92.0249 110.638 90.1489 110.455 88.9268 109.541C87.7049 108.628 86.7557 106.604 86.0796 103.469C84.4508 95.9157 85.8681 89.2191 90.3335 83.3778C90.5262 83.0839 91.4039 82.0119 92.9717 80.1613C94.5367 78.3116 95.6095 76.9433 96.1883 76.0622C96.767 75.1804 97.3438 73.9005 97.9223 72.2184C98.4988 70.5373 98.6238 68.9337 98.2947 67.4076C97.7229 64.7558 96.2672 62.9466 93.9302 61.9783C91.5925 61.0115 88.7972 60.8781 85.5439 61.5797C82.7774 62.1762 80.5975 63.1178 79.0029 64.4065C77.407 65.6948 76.4433 66.9476 76.1087 68.16C75.7733 69.3749 75.2148 70.5374 74.4342 71.6506C73.6536 72.7638 72.5298 73.4776 71.066 73.7932C69.1944 74.1968 67.3752 73.9492 65.6069 73.0498C63.8384 72.1514 62.7165 70.6002 62.2415 68.3974ZM88.9799 129.991C88.4172 127.381 88.879 124.955 90.3692 122.713C91.8585 120.471 93.9005 119.069 96.4994 118.509C99.1113 117.946 101.539 118.405 103.78 119.885C106.022 121.366 107.415 123.37 107.96 125.898C108.506 128.428 108.062 130.828 106.63 133.101C105.198 135.374 103.175 136.791 100.563 137.354C97.9491 137.918 95.5029 137.465 93.2214 135.992C90.9374 134.521 89.5254 132.521 88.9799 129.991Z" fill="white"/>
</g>
<g clip-path="url(#clip1_173_4880)">
<path d="M185.137 102.244C184.874 101.31 185.137 100.281 185.923 99.1635C186.71 98.0459 188.016 97.2299 189.839 96.7272C191.663 96.2246 193.344 96.2542 194.756 96.8455C196.169 97.4428 197.075 98.4303 197.462 99.814C197.987 101.683 197.379 103.77 195.639 106.076C195.239 106.626 194.977 107.135 194.84 107.602C194.709 108.069 194.655 108.459 194.691 108.773C194.727 109.086 194.834 109.559 195.007 110.18C195.233 110.978 194.762 111.54 193.606 111.859C192.998 112.025 192.539 112.013 192.229 111.806C191.919 111.605 191.657 111.126 191.449 110.381C190.942 108.578 191.192 106.94 192.194 105.461C192.235 105.39 192.432 105.118 192.79 104.645C193.141 104.178 193.386 103.829 193.511 103.61C193.636 103.392 193.761 103.072 193.874 102.658C193.988 102.244 194 101.854 193.892 101.487C193.713 100.855 193.332 100.441 192.748 100.24C192.164 100.039 191.484 100.045 190.698 100.263C190.03 100.447 189.517 100.707 189.148 101.038C188.778 101.375 188.564 101.689 188.498 101.99C188.433 102.286 188.314 102.576 188.141 102.859C187.968 103.143 187.706 103.326 187.354 103.427C186.907 103.551 186.46 103.516 186.013 103.326C185.572 103.137 185.274 102.777 185.125 102.25L185.137 102.244ZM192.545 116.756C192.372 116.135 192.45 115.537 192.778 114.976C193.106 114.414 193.582 114.041 194.208 113.87C194.834 113.698 195.436 113.775 196.002 114.101C196.568 114.426 196.938 114.893 197.111 115.496C197.284 116.099 197.206 116.685 196.89 117.258C196.574 117.826 196.103 118.198 195.472 118.376C194.84 118.553 194.238 118.476 193.666 118.151C193.088 117.826 192.718 117.365 192.545 116.762V116.756Z" fill="url(#paint1_linear_173_4880)"/>
<path d="M281.704 146.931C281.704 146.931 298.857 149.787 300.258 162.803C301.372 173.139 285.268 182.79 285.268 182.79C285.268 182.79 275.654 186.207 272.674 177.87C269.694 169.532 281.078 163.885 281.078 163.885L267.358 148.906L281.71 146.925" fill="url(#paint2_linear_173_4880)"/>
<path d="M307.052 96.1536C309.46 111.623 307.428 124.827 299.084 135.341C289.815 147.014 274.265 152.224 252.457 155.305C235.566 157.693 217.346 156.694 204.543 148.788C190.239 139.948 184.851 127.92 182.365 112.681C177.466 82.6476 199.912 50.4792 235.262 44.8143C270.29 39.1966 302.302 65.6469 307.046 96.1596L307.052 96.1536Z" fill="url(#paint3_linear_173_4880)"/>
<path opacity="0.3" d="M241.133 69.112C218.406 72.3171 194.905 90.2226 199.423 119.251C203.941 148.279 233.814 150.03 251.265 147.357C271.953 144.187 297.379 136.997 292.527 105.816C288.391 79.2061 263.859 65.907 241.133 69.1061V69.112Z" fill="url(#paint4_linear_173_4880)"/>
<path d="M241.133 69.112C218.406 72.3171 194.905 90.2226 199.423 119.251C203.941 148.279 233.814 150.03 251.265 147.357C271.953 144.187 297.379 136.997 292.527 105.816C288.391 79.2061 263.859 65.907 241.133 69.1061V69.112Z" fill="url(#paint5_radial_173_4880)"/>
<path opacity="0.3" d="M241.133 69.112C218.406 72.3171 194.905 90.2226 199.423 119.251C203.941 148.279 233.814 150.03 251.265 147.357C271.953 144.187 297.379 136.997 292.527 105.816C288.391 79.2061 263.859 65.907 241.133 69.1061V69.112Z" fill="url(#paint6_linear_173_4880)"/>
<path d="M211.707 116.927C211.159 117.057 210.497 117.104 209.788 116.939C208.584 116.655 207.589 115.839 206.832 114.509C206.534 113.982 206.719 113.32 207.249 113.024C207.774 112.729 208.447 112.912 208.745 113.438C209.186 114.219 209.711 114.686 210.295 114.822C211.153 115.023 211.987 114.503 211.993 114.497C212.494 114.16 213.179 114.29 213.513 114.792C213.853 115.289 213.722 115.969 213.215 116.3C213.12 116.365 212.542 116.738 211.707 116.927Z" fill="black"/>
<path d="M218.651 109.08C224.522 107.72 229.051 111.416 230.422 117.24C231.793 123.065 227.597 127.95 222.525 129.126C217.453 130.303 212.107 127.914 210.795 122.35C210.283 120.168 210.479 117.785 211.308 115.632C212.506 112.534 215.021 109.92 218.645 109.08H218.651Z" fill="url(#paint7_radial_173_4880)"/>
<path d="M217.463 141.99C222.374 140.852 225.928 138.119 225.403 135.887C224.877 133.654 220.47 132.767 215.559 133.905C210.648 135.044 207.094 137.776 207.619 140.009C208.145 142.241 212.552 143.128 217.463 141.99Z" fill="#FF95BD"/>
<path d="M282.832 125.153C287.816 124.39 291.571 121.935 291.219 119.669C290.866 117.403 286.541 116.185 281.557 116.947C276.573 117.71 272.818 120.165 273.17 122.431C273.523 124.697 277.849 125.915 282.832 125.153Z" fill="#FF95BD"/>
<path d="M177.031 48.2026C187.169 48.8767 197.29 54.9083 196.986 59.5621C196.682 64.2158 185.834 68.5799 175.702 67.9057C165.563 67.2316 157.642 62.2763 158.012 56.836C158.381 51.3958 166.893 47.5285 177.031 48.2026Z" fill="url(#paint8_radial_173_4880)"/>
<path d="M275.153 23.3667C268.806 31.2373 266.458 42.715 270.117 45.6362C273.878 48.6343 284.35 43.5725 290.698 35.7018C297.045 27.8312 298.708 18.6892 294.417 15.2832C290.125 11.8771 281.501 15.4961 275.153 23.3667Z" fill="url(#paint9_radial_173_4880)"/>
<path d="M269.356 92.0734C269.546 92.2154 269.767 92.2863 269.987 92.2863C270.303 92.2863 270.613 92.1444 270.822 91.8783C271.168 91.423 271.078 90.7725 270.625 90.4295C266.274 87.1536 261.792 89.1464 261.601 89.2291C261.083 89.4657 260.856 90.0807 261.095 90.5951C261.333 91.1096 261.947 91.3402 262.472 91.1096C262.615 91.0445 266.036 89.5662 269.368 92.0734H269.356Z" fill="black" fill-opacity="0.8"/>
<path d="M283.247 107.756C282.985 107.342 282.431 107.217 282.014 107.478C280.899 108.175 279.927 108.235 279.224 108.116C279.26 108.075 279.296 108.033 279.331 107.986C279.743 107.478 279.659 106.733 279.147 106.325C278.634 105.917 277.883 105.999 277.472 106.508C271.404 114.035 263.03 109.831 262.667 109.642C262.089 109.34 261.367 109.559 261.058 110.139C260.748 110.718 260.974 111.434 261.558 111.735C261.612 111.765 264.646 113.308 268.567 113.308C271.458 113.308 274.843 112.463 277.877 109.565C278.372 109.766 279.027 109.949 279.82 109.949C280.726 109.949 281.805 109.707 282.967 108.98C283.384 108.719 283.51 108.169 283.247 107.756Z" fill="url(#paint10_radial_173_4880)"/>
<path d="M250.44 133.226C252.418 132.942 253.731 130.726 253.373 128.276C253.016 125.826 251.123 124.07 249.145 124.354C247.168 124.638 245.855 126.855 246.212 129.305C246.57 131.755 248.463 133.51 250.44 133.226Z" fill="#E87070"/>
<path d="M253.381 128.269C253.327 127.908 253.238 127.571 253.119 127.252C250.061 127.382 247.623 129.398 247.415 131.935C248.219 132.858 249.316 133.384 250.448 133.218C252.427 132.934 253.738 130.717 253.381 128.269Z" fill="#D16666"/>
<path d="M226.238 143.827L220.755 145.015L219.187 137.902L224.671 136.713L226.238 143.827Z" fill="url(#paint11_linear_173_4880)"/>
<path d="M224.671 136.713L219.187 137.902L219.533 139.475L226.214 143.726L224.671 136.707V136.713Z" fill="url(#paint12_linear_173_4880)"/>
<path d="M229.981 99.7489C219.736 93.2265 206.105 96.1832 199.531 106.348C192.957 116.513 195.937 130.037 206.182 136.559C216.428 143.082 230.059 140.125 236.633 129.96C243.207 119.795 240.227 106.271 229.981 99.7489ZM208.936 132.296C201.062 127.281 198.774 116.886 203.828 109.074C208.882 101.263 219.36 98.992 227.234 104.001C235.107 109.009 237.396 119.411 232.341 127.222C227.287 135.034 216.809 137.304 208.936 132.29V132.296Z" fill="url(#paint13_linear_173_4880)"/>
<path d="M207.774 134.088C216.642 139.735 228.449 137.174 234.141 128.375C239.833 119.576 237.253 107.862 228.384 102.215C219.515 96.5675 207.708 99.128 202.016 107.927C196.324 116.726 198.905 128.44 207.774 134.088ZM227.222 104.006C235.095 109.021 237.384 119.417 232.329 127.228C227.275 135.04 216.797 137.31 208.924 132.302C201.05 127.287 198.762 116.892 203.816 109.08C208.87 101.269 219.348 98.9979 227.222 104.012V104.006Z" fill="url(#paint14_linear_173_4880)"/>
<path d="M227.126 165.126C229.47 165.126 231.37 163.241 231.37 160.916C231.37 158.591 229.47 156.706 227.126 156.706C224.783 156.706 222.883 158.591 222.883 160.916C222.883 163.241 224.783 165.126 227.126 165.126Z" fill="url(#paint15_linear_173_4880)"/>
<path d="M227.126 164.429C229.082 164.429 230.667 162.856 230.667 160.916C230.667 158.976 229.082 157.404 227.126 157.404C225.171 157.404 223.586 158.976 223.586 160.916C223.586 162.856 225.171 164.429 227.126 164.429Z" fill="url(#paint16_linear_173_4880)"/>
<path d="M229.785 164.192C229.94 163.577 229.963 162.921 229.814 162.258C229.314 159.988 227.055 158.551 224.766 159.048C224.099 159.189 223.503 159.485 223.008 159.881C223.389 158.385 224.593 157.155 226.214 156.806C228.503 156.31 230.762 157.747 231.263 160.017C231.614 161.626 230.989 163.222 229.785 164.192Z" fill="url(#paint17_linear_173_4880)"/>
<path d="M222.978 161.809C222.477 159.538 223.926 157.297 226.214 156.801C228.503 156.304 230.762 157.741 231.263 160.011C231.483 160.999 231.328 161.981 230.899 162.82L224.486 164.21C223.741 163.63 223.193 162.797 222.972 161.809H222.978Z" fill="url(#paint18_linear_173_4880)"/>
<path d="M231.286 160.1L223.002 161.898L219.199 144.631C219.098 144.17 219.39 143.714 219.855 143.614L226.459 142.183C226.924 142.082 227.382 142.372 227.484 142.833L231.286 160.1Z" fill="url(#paint19_linear_173_4880)"/>
<path d="M226.459 142.183L221.84 143.182C221.375 143.283 221.083 143.738 221.184 144.199L224.986 161.466L231.292 160.1L227.49 142.833C227.388 142.372 226.93 142.082 226.465 142.183H226.459Z" fill="url(#paint20_linear_173_4880)"/>
<path d="M218.079 134.957C227.434 134.957 235.018 127.433 235.018 118.151C235.018 108.87 227.434 101.346 218.079 101.346C208.724 101.346 201.14 108.87 201.14 118.151C201.14 127.433 208.724 134.957 218.079 134.957Z" fill="url(#paint21_linear_173_4880)"/>
<g filter="url(#filter2_d_173_4880)">
<path fill-rule="evenodd" clip-rule="evenodd" d="M288.623 184H227.084C226.674 177.081 227.949 171.454 227.949 171.454C227.949 171.454 228.682 163.441 234.427 156.398C240.412 156.546 246.515 156.138 252.457 155.299C259.782 154.264 266.38 152.981 272.293 151.301C276.286 154.293 278.271 157.463 278.271 157.463L278.265 157.457C278.265 157.457 284.958 165.824 287.485 175.906C288.095 178.332 288.549 181.108 288.623 184Z" fill="url(#paint22_radial_173_4880)"/>
</g>
<path d="M234.427 156.398C228.682 163.441 227.949 171.454 227.949 171.454C227.949 171.454 227.269 174.458 227.061 178.768C229.063 179.514 235.822 175.215 238.57 169.875C240.465 166.191 243.01 160.242 240.09 156.375C238.194 156.434 236.305 156.446 234.427 156.398Z" fill="url(#paint23_radial_173_4880)"/>
<path d="M218.752 156.901C214.812 162.761 209.323 172.908 215.772 177.337C222.221 181.766 231.37 175.138 235.113 167.498C238.856 159.858 240.841 151.484 234.386 148.285C227.931 145.086 222.227 151.733 218.752 156.901Z" fill="url(#paint24_radial_173_4880)"/>
<path fill-rule="evenodd" clip-rule="evenodd" d="M191.496 135.006C190.798 132.91 188.533 131.776 186.437 132.474C184.341 133.171 183.207 135.436 183.905 137.532L184.852 140.379L182.006 141.326C179.91 142.024 178.776 144.289 179.474 146.385C180.171 148.481 182.436 149.614 184.532 148.917L187.379 147.969L188.326 150.816C189.024 152.912 191.289 154.046 193.385 153.348C195.481 152.65 196.614 150.386 195.917 148.289L194.969 145.443L197.816 144.496C199.912 143.798 201.046 141.533 200.348 139.437C199.65 137.341 197.386 136.207 195.289 136.905L192.443 137.852L191.496 135.006Z" fill="white" fill-opacity="0.06"/>
</g>
<circle cx="148" cy="16" r="2" fill="white"/>
<path d="M60.3351 21.3121C46.4418 35.4448 23.7222 35.6388 9.5895 21.7455C-4.54319 7.85223 -4.73725 -14.8673 9.15606 -29" stroke="white" stroke-opacity="0.06" stroke-width="16"/>
<circle cx="76" cy="183" r="4.5" stroke="#B8FEBB" stroke-width="3"/>
<circle cx="335" cy="42" r="5" fill="#B8F1FE"/>
<path d="M24.8038 100.168L22.4199 110.479L14.6827 103.259L24.8038 100.168Z" fill="#FAE8A9"/>
<path d="M356.622 111.996L360.362 153.099L322.896 135.786L356.622 111.996Z" fill="white" fill-opacity="0.06"/>
</g>
<defs>
<filter id="filter0_f_173_4880" x="47.9947" y="30.6859" width="79.7281" height="119.729" filterUnits="userSpaceOnUse" color-interpolation-filters="sRGB">
<feFlood flood-opacity="0" result="BackgroundImageFix"/>
<feBlend mode="normal" in="SourceGraphic" in2="BackgroundImageFix" result="shape"/>
<feGaussianBlur stdDeviation="7" result="effect1_foregroundBlur_173_4880"/>
</filter>
<filter id="filter1_d_173_4880" x="53.9947" y="40.8593" width="71.7281" height="111.729" filterUnits="userSpaceOnUse" color-interpolation-filters="sRGB">
<feFlood flood-opacity="0" result="BackgroundImageFix"/>
<feColorMatrix in="SourceAlpha" type="matrix" values="0 0 0 0 0 0 0 0 0 0 0 0 0 0 0 0 0 0 127 0" result="hardAlpha"/>
<feOffset dx="2" dy="5"/>
<feGaussianBlur stdDeviation="5"/>
<feComposite in2="hardAlpha" operator="out"/>
<feColorMatrix type="matrix" values="0 0 0 0 0.0309014 0 0 0 0 0.0250694 0 0 0 0 0.316667 0 0 0 0.25 0"/>
<feBlend mode="normal" in2="BackgroundImageFix" result="effect1_dropShadow_173_4880"/>
<feBlend mode="normal" in="SourceGraphic" in2="effect1_dropShadow_173_4880" result="shape"/>
</filter>
<filter id="filter2_d_173_4880" x="225.003" y="147.301" width="69.6198" height="40.6989" filterUnits="userSpaceOnUse" color-interpolation-filters="sRGB">
<feFlood flood-opacity="0" result="BackgroundImageFix"/>
<feColorMatrix in="SourceAlpha" type="matrix" values="0 0 0 0 0 0 0 0 0 0 0 0 0 0 0 0 0 0 127 0" result="hardAlpha"/>
<feOffset dx="2"/>
<feGaussianBlur stdDeviation="2"/>
<feColorMatrix type="matrix" values="0 0 0 0 0.0196078 0 0 0 0 0.0196078 0 0 0 0 0.239216 0 0 0 0.2 0"/>
<feBlend mode="normal" in2="BackgroundImageFix" result="effect1_dropShadow_173_4880"/>
<feBlend mode="normal" in="SourceGraphic" in2="effect1_dropShadow_173_4880" result="shape"/>
</filter>
<linearGradient id="paint0_linear_173_4880" x1="30" y1="8.49999" x2="338.5" y2="176" gradientUnits="userSpaceOnUse">
<stop stop-color="#3D48A9"/>
<stop offset="1" stop-color="#3D48A9"/>
</linearGradient>
<linearGradient id="paint1_linear_173_4880" x1="190.19" y1="109.306" x2="201.038" y2="99.4112" gradientUnits="userSpaceOnUse">
<stop stop-color="#FF7044"/>
<stop offset="1" stop-color="#F92814"/>
</linearGradient>
<linearGradient id="paint2_linear_173_4880" x1="276.143" y1="151.218" x2="291.779" y2="179.005" gradientUnits="userSpaceOnUse">
<stop stop-color="#BDC7E5"/>
<stop offset="1" stop-color="#95ABD9"/>
</linearGradient>
<linearGradient id="paint3_linear_173_4880" x1="197.895" y1="76.6214" x2="303.289" y2="137.533" gradientUnits="userSpaceOnUse">
<stop stop-color="#E4E6EE"/>
<stop offset="1" stop-color="#95ABD9"/>
</linearGradient>
<linearGradient id="paint4_linear_173_4880" x1="213.045" y1="98.4571" x2="289.75" y2="124.779" gradientUnits="userSpaceOnUse">
<stop offset="0.19" stop-color="white"/>
<stop offset="1" stop-color="#E4E8ED"/>
</linearGradient>
<radialGradient id="paint5_radial_173_4880" cx="0" cy="0" r="1" gradientUnits="userSpaceOnUse" gradientTransform="translate(245.381 108.682) rotate(-8.70209) scale(47.8118 39.2003)">
<stop offset="0.88" stop-color="#EEF2F5"/>
<stop offset="1" stop-color="#CED5DB"/>
</radialGradient>
<linearGradient id="paint6_linear_173_4880" x1="213.045" y1="98.4571" x2="289.75" y2="124.779" gradientUnits="userSpaceOnUse">
<stop offset="0.19" stop-color="white"/>
<stop offset="1" stop-color="#E4E8ED"/>
</linearGradient>
<radialGradient id="paint7_radial_173_4880" cx="0" cy="0" r="1" gradientUnits="userSpaceOnUse" gradientTransform="translate(228.439 114.878) rotate(-13.0501) scale(18.0163 17.8891)">
<stop stop-color="#4F4F4F"/>
<stop offset="1"/>
</radialGradient>
<radialGradient id="paint8_radial_173_4880" cx="0" cy="0" r="1" gradientUnits="userSpaceOnUse" gradientTransform="translate(171.612 56.3371) rotate(-4.37545) scale(20.4127 14.5829)">
<stop stop-color="#EBEDF2"/>
<stop offset="0.23" stop-color="#E2E6EE"/>
<stop offset="0.59" stop-color="#CCD6E5"/>
<stop offset="1" stop-color="#ABBED9"/>
</radialGradient>
<radialGradient id="paint9_radial_173_4880" cx="0" cy="0" r="1" gradientUnits="userSpaceOnUse" gradientTransform="translate(282.699 23.4594) rotate(116.564) scale(25.1222 16.1253)">
<stop stop-color="#EBEDF2"/>
<stop offset="0.2" stop-color="#E2E6EE"/>
<stop offset="0.51" stop-color="#CCD6E5"/>
<stop offset="0.87" stop-color="#ABBED9"/>
</radialGradient>
<radialGradient id="paint10_radial_173_4880" cx="0" cy="0" r="1" gradientUnits="userSpaceOnUse" gradientTransform="translate(272.155 109.689) scale(8.35022 8.28455)">
<stop stop-color="#4F4F4F"/>
<stop offset="1"/>
</radialGradient>
<linearGradient id="paint11_linear_173_4880" x1="220.28" y1="141.136" x2="222.085" y2="140.734" gradientUnits="userSpaceOnUse">
<stop stop-color="#F9F7FC"/>
<stop offset="1" stop-color="#F0DDFC"/>
</linearGradient>
<linearGradient id="paint12_linear_173_4880" x1="223.343" y1="145.572" x2="219.136" y2="140.208" gradientUnits="userSpaceOnUse">
<stop stop-color="#F0DDFC" stop-opacity="0"/>
<stop offset="0.49" stop-color="#BBABD7" stop-opacity="0.49"/>
<stop offset="1" stop-color="#8779B3"/>
</linearGradient>
<linearGradient id="paint13_linear_173_4880" x1="207.42" y1="120.461" x2="247.141" y2="111.717" gradientUnits="userSpaceOnUse">
<stop stop-color="#C4C7CE"/>
<stop offset="1" stop-color="#96A3C2"/>
</linearGradient>
<linearGradient id="paint14_linear_173_4880" x1="235.226" y1="114.44" x2="198.319" y2="122.565" gradientUnits="userSpaceOnUse">
<stop stop-color="#C4C7CE"/>
<stop offset="0.99" stop-color="#96A3C2"/>
</linearGradient>
<linearGradient id="paint15_linear_173_4880" x1="224.241" y1="168.055" x2="228.372" y2="161.563" gradientUnits="userSpaceOnUse">
<stop stop-color="#FFB5B0"/>
<stop offset="1" stop-color="#FF70AC"/>
</linearGradient>
<linearGradient id="paint16_linear_173_4880" x1="226.309" y1="161.041" x2="220.392" y2="165.28" gradientUnits="userSpaceOnUse">
<stop stop-color="#E9EDF5" stop-opacity="0"/>
<stop offset="1" stop-color="white"/>
</linearGradient>
<linearGradient id="paint17_linear_173_4880" x1="226.434" y1="167.598" x2="228.845" y2="173.92" gradientUnits="userSpaceOnUse">
<stop stop-color="#FFB5B0" stop-opacity="0"/>
<stop offset="0.05" stop-color="#FFAFB0" stop-opacity="0.05"/>
<stop offset="0.28" stop-color="#FF93AE" stop-opacity="0.28"/>
<stop offset="0.52" stop-color="#FF80AD" stop-opacity="0.52"/>
<stop offset="0.76" stop-color="#FF74AC" stop-opacity="0.76"/>
<stop offset="1" stop-color="#FF70AC"/>
</linearGradient>
<linearGradient id="paint18_linear_173_4880" x1="225.28" y1="165.289" x2="224.81" y2="163.121" gradientUnits="userSpaceOnUse">
<stop stop-color="#FFB5B0" stop-opacity="0"/>
<stop offset="0.05" stop-color="#FFAFB0" stop-opacity="0.05"/>
<stop offset="0.28" stop-color="#FF93AE" stop-opacity="0.28"/>
<stop offset="0.52" stop-color="#FF80AD" stop-opacity="0.52"/>
<stop offset="0.76" stop-color="#FF74AC" stop-opacity="0.76"/>
<stop offset="1" stop-color="#FF70AC"/>
</linearGradient>
<linearGradient id="paint19_linear_173_4880" x1="220.981" y1="155.653" x2="227.795" y2="154.153" gradientUnits="userSpaceOnUse">
<stop stop-color="#8B788A"/>
<stop offset="1" stop-color="#6E566E"/>
</linearGradient>
<linearGradient id="paint20_linear_173_4880" x1="225.832" y1="153.718" x2="217.793" y2="160.424" gradientUnits="userSpaceOnUse">
<stop stop-color="#8B788A" stop-opacity="0"/>
<stop offset="1" stop-color="#9E8C92"/>
</linearGradient>
<linearGradient id="paint21_linear_173_4880" x1="220.022" y1="132.401" x2="215.843" y2="103.822" gradientUnits="userSpaceOnUse">
<stop stop-color="#E9EDF5" stop-opacity="0.2"/>
<stop offset="1" stop-color="white" stop-opacity="0.6"/>
</linearGradient>
<radialGradient id="paint22_radial_173_4880" cx="0" cy="0" r="1" gradientUnits="userSpaceOnUse" gradientTransform="translate(248.547 174.316) scale(47.759 47.3834)">
<stop stop-color="#E4E6EE"/>
<stop offset="1" stop-color="#95ABD9"/>
</radialGradient>
<radialGradient id="paint23_radial_173_4880" cx="0" cy="0" r="1" gradientUnits="userSpaceOnUse" gradientTransform="translate(232.369 167.506) rotate(-57.9168) scale(13.2041 6.22746)">
<stop stop-color="#0A2551"/>
<stop offset="0.44" stop-color="#123367" stop-opacity="0.47"/>
<stop offset="0.79" stop-color="#173C76" stop-opacity="0.13"/>
<stop offset="1" stop-color="#1A407C" stop-opacity="0"/>
</radialGradient>
<radialGradient id="paint24_radial_173_4880" cx="0" cy="0" r="1" gradientUnits="userSpaceOnUse" gradientTransform="translate(224.361 155.05) scale(23.1076 22.9259)">
<stop stop-color="#D2DBF5"/>
<stop offset="1" stop-color="#95ABD9"/>
</radialGradient>
<clipPath id="clip0_173_4880">
<rect width="350" height="184" rx="20" fill="white"/>
</clipPath>
<clipPath id="clip1_173_4880">
<rect width="150" height="200" fill="white" transform="translate(158 14)"/>
</clipPath>
</defs>
</svg>
