<svg width="216" height="216" viewBox="0 0 216 216" fill="none" xmlns="http://www.w3.org/2000/svg">
<g clip-path="url(#clip0_112_916)">
<path d="M151 0H65C29.1015 0 0 29.1015 0 65V151C0 186.899 29.1015 216 65 216H151C186.899 216 216 186.899 216 151V65C216 29.1015 186.899 0 151 0Z" fill="url(#paint0_linear_112_916)"/>
<path d="M146.87 168.25C156.89 161.74 174.84 158.5 177.34 165.25C180.26 173.12 176.18 181.61 160.8 188.36C145.42 195.11 133.65 195.74 131.08 189.28C127.27 179.69 146.87 168.25 146.87 168.25Z" fill="url(#paint1_radial_112_916)"/>
<path d="M146.87 168.25C156.89 161.74 174.84 158.5 177.34 165.25C180.26 173.12 176.18 181.61 160.8 188.36C145.42 195.11 133.65 195.74 131.08 189.28C127.27 179.69 146.87 168.25 146.87 168.25Z" fill="url(#paint2_linear_112_916)"/>
<path d="M146.87 168.25C156.89 161.74 173.3 158.02 177.34 165.25C181.38 172.48 176.18 181.61 160.8 188.36C145.42 195.11 133.65 195.74 131.08 189.28C127.27 179.69 146.87 168.25 146.87 168.25Z" fill="url(#paint3_radial_112_916)"/>
<path d="M74.05 168.21C64.26 161.36 46.43 157.51 43.7 164.17C40.52 171.94 44.31 180.56 59.45 187.84C74.59 195.12 86.34 196.15 89.12 189.78C93.25 180.33 74.05 168.22 74.05 168.22V168.21Z" fill="url(#paint4_radial_112_916)"/>
<path d="M74.05 168.21C64.26 161.36 46.43 157.51 43.7 164.17C40.52 171.94 44.31 180.56 59.45 187.84C74.59 195.12 86.34 196.15 89.12 189.78C93.25 180.33 74.05 168.22 74.05 168.22V168.21Z" fill="url(#paint5_linear_112_916)"/>
<path d="M74.05 168.21C64.26 161.36 46.43 157.51 43.7 164.17C40.52 171.94 44.31 180.56 59.45 187.84C74.59 195.12 86.34 196.15 89.12 189.78C93.25 180.33 74.05 168.22 74.05 168.22V168.21Z" fill="url(#paint6_radial_112_916)"/>
<path d="M87.78 177.65C87.78 177.65 72.79 195.58 73.23 216H143.63C143.97 194.44 130.37 178.58 130.37 178.58L87.78 177.65V177.65Z" fill="url(#paint7_radial_112_916)"/>
<path d="M177.26 127.41C177.26 144.78 172.86 158.92 162.09 169.06C150.14 180.31 132.49 183.41 108.45 183.13C89.83 182.91 70.34 178.76 57.87 167.94C43.92 155.84 40.13 141.74 40.01 124.61C39.77 90.85 69.37 59.33 108.45 59.05C147.17 58.77 177.26 93.16 177.26 127.42V127.41Z" fill="url(#paint8_linear_112_916)"/>
<path d="M110.69 86.68C85.64 86.38 57.29 102.07 57.29 134.67C57.29 167.27 89.22 174.21 108.49 174.21C131.34 174.21 159.96 170.59 159.96 135.58C159.96 105.7 135.74 86.99 110.69 86.68Z" fill="url(#paint9_radial_112_916)"/>
<g opacity="0.3">
<path d="M110.69 86.68C85.64 86.38 57.29 102.07 57.29 134.67C57.29 167.27 89.22 174.21 108.49 174.21C131.34 174.21 159.96 170.59 159.96 135.58C159.96 105.7 135.74 86.99 110.69 86.68Z" fill="url(#paint10_linear_112_916)"/>
</g>
<path d="M81.85 119.88C88.43 119.88 92.32 125.01 92.32 131.65C92.32 138.29 86.64 142.52 80.95 142.52C75.26 142.52 70.18 138.6 70.18 132.26C70.18 129.77 70.98 127.24 72.41 125.13C74.46 122.08 77.79 119.89 81.85 119.89V119.88Z" fill="url(#paint11_radial_112_916)"/>
<path fill-rule="evenodd" clip-rule="evenodd" d="M68.74 121.29C69.37 121.1 70.04 121.47 70.22 122.11C70.47 122.96 70.81 123.44 71.11 123.71C71.41 123.98 71.75 124.12 72.09 124.17C72.44 124.23 72.78 124.2 73.04 124.15C73.17 124.13 73.27 124.1 73.34 124.08C73.37 124.08 73.4 124.06 73.41 124.06C74.03 123.83 74.71 124.14 74.95 124.76C75.19 125.38 74.88 126.08 74.26 126.32L73.83 125.19C74.1167 125.943 74.2567 126.32 74.25 126.32C74.25 126.32 74.24 126.32 74.23 126.32C74.22 126.32 74.2 126.33 74.18 126.34C74.14 126.35 74.08 126.37 74.02 126.39C73.89 126.43 73.7 126.48 73.48 126.52C73.04 126.6 72.41 126.66 71.72 126.55C71.02 126.43 70.24 126.14 69.54 125.51C68.84 124.88 68.29 123.98 67.94 122.78C67.76 122.14 68.12 121.47 68.75 121.28L68.74 121.29Z" fill="black"/>
<path fill-rule="evenodd" clip-rule="evenodd" d="M148.67 120.99C149.3 121.18 149.67 121.85 149.48 122.49C149.13 123.7 148.58 124.59 147.88 125.22C147.18 125.85 146.4 126.14 145.7 126.26C145.01 126.38 144.38 126.32 143.94 126.24C143.72 126.2 143.53 126.15 143.4 126.11C143.33 126.09 143.28 126.07 143.24 126.06C143.22 126.06 143.2 126.05 143.19 126.04C143.19 126.04 143.18 126.04 143.17 126.04C143.17 126.04 143.17 126.04 143.59 124.92L143.17 126.04C142.55 125.8 142.24 125.11 142.48 124.48C142.71 123.86 143.4 123.55 144.01 123.78C144.02 123.78 144.05 123.79 144.08 123.8C144.15 123.82 144.25 123.85 144.38 123.87C144.64 123.92 144.98 123.95 145.33 123.89C145.67 123.83 146.01 123.7 146.31 123.43C146.61 123.16 146.96 122.68 147.2 121.83C147.38 121.19 148.05 120.82 148.68 121.01L148.67 120.99Z" fill="#404040"/>
<path d="M136.6 119.88C130.02 119.88 125.53 125.01 125.53 131.65C125.53 138.29 131.21 142.52 136.9 142.52C142.59 142.52 147.67 138.6 147.67 132.26C147.67 125.92 143.48 119.88 136.6 119.88V119.88Z" fill="url(#paint12_radial_112_916)"/>
<path opacity="0.8" fill-rule="evenodd" clip-rule="evenodd" d="M132 108.14C132.02 107.56 132.5 107.1 133.08 107.11L133.05 108.17C133.07 107.463 133.08 107.11 133.08 107.11H133.1C133.1 107.11 133.13 107.11 133.14 107.11C133.18 107.11 133.24 107.11 133.31 107.11C133.46 107.11 133.67 107.13 133.93 107.15C134.46 107.18 135.19 107.25 136.04 107.35C137.72 107.55 139.9 107.92 141.75 108.62C142.29 108.82 142.57 109.43 142.37 109.98C142.17 110.53 141.56 110.8 141.02 110.6C139.4 109.99 137.42 109.64 135.79 109.45C134.99 109.35 134.29 109.3 133.79 109.26C133.54 109.24 133.34 109.23 133.21 109.23C133.14 109.23 133.09 109.23 133.06 109.23C133.04 109.23 133.03 109.23 133.02 109.23H133.01C132.43 109.21 131.98 108.73 131.99 108.14H132Z" fill="black"/>
<path fill-rule="evenodd" clip-rule="evenodd" d="M106.37 147.18C106.28 146.52 105.68 146.06 105.03 146.15C104.37 146.24 103.91 146.84 104 147.5L105.19 147.35C104.397 147.45 104 147.503 104 147.51V147.52C104 147.52 104 147.53 104 147.54C104 147.55 104 147.57 104 147.59C104 147.63 104.02 147.69 104.03 147.76C104.06 147.9 104.11 148.09 104.18 148.32C104.32 148.77 104.56 149.38 104.97 149.99C105.83 151.26 107.38 152.48 109.96 152.48C112.54 152.48 114.09 151.26 114.95 149.99C115.36 149.38 115.6 148.77 115.74 148.32C115.81 148.09 115.86 147.9 115.89 147.76C115.9 147.69 115.92 147.63 115.92 147.59C115.92 147.57 115.92 147.55 115.92 147.54C115.92 147.54 115.92 147.53 115.92 147.52V147.51C115.92 147.51 115.92 147.51 114.73 147.35L115.92 147.5C116 146.84 115.54 146.23 114.89 146.15C114.24 146.07 113.64 146.53 113.55 147.18C113.55 147.19 113.55 147.22 113.54 147.26C113.53 147.33 113.5 147.45 113.45 147.59C113.36 147.88 113.21 148.25 112.96 148.62C112.5 149.31 111.65 150.05 109.95 150.05C108.25 150.05 107.4 149.31 106.94 148.62C106.69 148.25 106.54 147.88 106.45 147.59C106.41 147.45 106.38 147.33 106.36 147.26C106.36 147.22 106.35 147.2 106.35 147.18H106.37Z" fill="#222222"/>
<path d="M82.32 150.54C82.32 153.08 77.86 155.15 72.36 155.15C66.86 155.15 62.4 153.09 62.4 150.54C62.4 147.99 66.86 145.93 72.36 145.93C77.86 145.93 82.32 147.99 82.32 150.54Z" fill="#FF96BE"/>
<path d="M156.23 150.54C156.23 153.08 151.77 155.15 146.27 155.15C140.77 155.15 136.31 153.09 136.31 150.54C136.31 147.99 140.77 145.93 146.27 145.93C151.77 145.93 156.23 147.99 156.23 150.54Z" fill="#FF96BE"/>
<path d="M65.98 42.57C71.13 52.48 71.23 65.48 66.7 67.89C62.04 70.37 51.89 62.65 46.74 52.74C41.59 42.83 41.73 32.52 47.05 29.71C52.36 26.9 60.84 32.66 65.99 42.57H65.98Z" fill="url(#paint13_radial_112_916)"/>
<path d="M166.38 47.8C156.72 53.3 149.63 64.15 152.14 68.66C154.72 73.29 167.4 72.38 177.05 66.89C186.7 61.4 192.14 52.66 189.19 47.39C186.24 42.12 176.03 42.3 166.37 47.8H166.38Z" fill="url(#paint14_radial_112_916)"/>
</g>
<defs>
<linearGradient id="paint0_linear_112_916" x1="184.85" y1="166.71" x2="24.63" y2="44.32" gradientUnits="userSpaceOnUse">
<stop stop-color="#5D51EF"/>
<stop offset="1" stop-color="#8C70FB"/>
</linearGradient>
<radialGradient id="paint1_radial_112_916" cx="0" cy="0" r="1" gradientUnits="userSpaceOnUse" gradientTransform="translate(152.832 178.898) rotate(66.02) scale(12.78 26.25)">
<stop offset="0.06" stop-color="#E8EAF3"/>
<stop offset="0.31" stop-color="#E5E7F1"/>
<stop offset="0.49" stop-color="#DBE0ED"/>
<stop offset="0.66" stop-color="#CBD4E6"/>
<stop offset="0.81" stop-color="#B5C3DD"/>
<stop offset="0.95" stop-color="#98ADD0"/>
<stop offset="1" stop-color="#8CA3CB"/>
</radialGradient>
<linearGradient id="paint2_linear_112_916" x1="152.83" y1="171.81" x2="157.57" y2="190.35" gradientUnits="userSpaceOnUse">
<stop offset="0.16" stop-color="#E8EAF3"/>
<stop offset="0.68" stop-color="#ABBBD8"/>
<stop offset="1" stop-color="#8CA3CB"/>
</linearGradient>
<radialGradient id="paint3_radial_112_916" cx="0" cy="0" r="1" gradientUnits="userSpaceOnUse" gradientTransform="translate(151.346 173.524) rotate(59.67) scale(12.99 27.53)">
<stop offset="0.16" stop-color="#D2D8EC"/>
<stop offset="0.37" stop-color="#CED5EA"/>
<stop offset="0.56" stop-color="#C2CCE4"/>
<stop offset="1" stop-color="#AEBDDB"/>
</radialGradient>
<radialGradient id="paint4_radial_112_916" cx="0" cy="0" r="1" gradientUnits="userSpaceOnUse" gradientTransform="translate(64.6647 181.472) rotate(115.92) scale(12.78 26.26)">
<stop offset="0.06" stop-color="#E8EAF3"/>
<stop offset="0.31" stop-color="#E5E7F1"/>
<stop offset="0.49" stop-color="#DBE0ED"/>
<stop offset="0.66" stop-color="#CBD4E6"/>
<stop offset="0.81" stop-color="#B5C3DD"/>
<stop offset="0.95" stop-color="#98ADD0"/>
<stop offset="1" stop-color="#8CA3CB"/>
</radialGradient>
<linearGradient id="paint5_linear_112_916" x1="67.97" y1="171.58" x2="62.6" y2="189.95" gradientUnits="userSpaceOnUse">
<stop offset="0.16" stop-color="#E8EAF3"/>
<stop offset="0.68" stop-color="#ABBBD8"/>
<stop offset="1" stop-color="#8CA3CB"/>
</linearGradient>
<radialGradient id="paint6_radial_112_916" cx="0" cy="0" r="1" gradientUnits="userSpaceOnUse" gradientTransform="translate(67.7596 177.464) rotate(122.27) scale(12.99 27.54)">
<stop offset="0.16" stop-color="#DADFEA"/>
<stop offset="0.35" stop-color="#D6DCE8"/>
<stop offset="0.54" stop-color="#CAD3E3"/>
<stop offset="1" stop-color="#B6C4DC"/>
</radialGradient>
<radialGradient id="paint7_radial_112_916" cx="0" cy="0" r="1" gradientUnits="userSpaceOnUse" gradientTransform="translate(89.11 197.52) scale(40.96 40.96)">
<stop stop-color="#E8EAF3"/>
<stop offset="0.27" stop-color="#E5E7F1"/>
<stop offset="0.47" stop-color="#DBE0ED"/>
<stop offset="0.64" stop-color="#CBD4E6"/>
<stop offset="0.84" stop-color="#B5C3DD"/>
<stop offset="1" stop-color="#98ADD0"/>
</radialGradient>
<linearGradient id="paint8_linear_112_916" x1="62.51" y1="88.01" x2="167.26" y2="170.89" gradientUnits="userSpaceOnUse">
<stop stop-color="#E5E7EF"/>
<stop offset="1" stop-color="#96ACDA"/>
</linearGradient>
<radialGradient id="paint9_radial_112_916" cx="0" cy="0" r="1" gradientUnits="userSpaceOnUse" gradientTransform="translate(106.126 131.585) scale(52.19 43.5)">
<stop offset="0.88" stop-color="#EFF3F6"/>
<stop offset="1" stop-color="#CFD6DC"/>
</radialGradient>
<linearGradient id="paint10_linear_112_916" x1="75.09" y1="114.77" x2="154.55" y2="154.45" gradientUnits="userSpaceOnUse">
<stop offset="0.19" stop-color="white"/>
<stop offset="1" stop-color="#E5E9EE"/>
</linearGradient>
<radialGradient id="paint11_radial_112_916" cx="0" cy="0" r="1" gradientUnits="userSpaceOnUse" gradientTransform="translate(85.7261 128.84) scale(19.67 19.85)">
<stop stop-color="#4F4F4F"/>
<stop offset="1"/>
</radialGradient>
<radialGradient id="paint12_radial_112_916" cx="0" cy="0" r="1" gradientUnits="userSpaceOnUse" gradientTransform="translate(140.529 128.409) scale(20.11 20.29)">
<stop stop-color="#4F4F4F"/>
<stop offset="1"/>
</radialGradient>
<radialGradient id="paint13_radial_112_916" cx="0" cy="0" r="1" gradientUnits="userSpaceOnUse" gradientTransform="translate(51.4579 34.5646) rotate(65.09) scale(26.25 18.78)">
<stop stop-color="#ECEEF3"/>
<stop offset="0.23" stop-color="#E3E7EF"/>
<stop offset="0.59" stop-color="#CDD7E6"/>
<stop offset="1" stop-color="#ACBFDA"/>
</radialGradient>
<radialGradient id="paint14_radial_112_916" cx="0" cy="0" r="1" gradientUnits="userSpaceOnUse" gradientTransform="translate(169.011 51.2842) rotate(56.91) scale(23.78 28.94)">
<stop stop-color="#ECEEF3"/>
<stop offset="0.2" stop-color="#E3E7EF"/>
<stop offset="0.51" stop-color="#CDD7E6"/>
<stop offset="0.87" stop-color="#ACBFDA"/>
</radialGradient>
<clipPath id="clip0_112_916">
<rect width="216" height="216" fill="white"/>
</clipPath>
</defs>
</svg>
