<svg width="48" height="62" viewBox="0 0 48 62" fill="none" xmlns="http://www.w3.org/2000/svg">
<path d="M28.7388 51.1092C28.7388 51.1092 19.7926 57.1117 12.179 49.4951C12.179 49.4951 20.0023 43.5557 28.7388 51.1092Z" fill="#FFF7DB"/>
<path d="M38.1786 55.8758C38.1786 55.8758 32.2309 64.9678 22.3099 60.9956C22.3099 60.9956 27.2457 52.408 38.1786 55.8758Z" fill="#FFF7DB"/>
<path d="M19.7185 41.7524C19.7185 41.7524 10.5379 46.7838 4.87399 36.4182C4.87399 36.4182 12.3024 31.5381 19.7185 41.7524V41.7524Z" fill="#FFF7DB"/>
<path d="M13.0798 28.4613C13.0798 28.4613 9.55072 19.2432 -0.000115899 20.5294C-0.000115899 20.5294 0.888323 30.7563 13.0798 28.4613V28.4613Z" fill="#FFF7DB"/>
<path d="M46.9151 60.3777C47.421 60.3777 47.8652 60.0246 47.9763 59.495C48.0997 58.8897 47.7295 58.297 47.1372 58.1709C10.0444 50.0247 11.1303 12.5724 11.192 10.9835C11.2167 10.3656 10.7478 9.84859 10.1431 9.82337C9.5385 9.81076 9.03256 10.2773 9.00788 10.8952C8.99554 11.2988 7.76159 51.8028 46.6683 60.3525C46.7423 60.3651 46.8287 60.3777 46.9028 60.3777H46.9151Z" fill="#FFF7DB"/>
<path d="M10.4763 18.7262C10.4763 18.7262 2.12238 10.5421 10.1308 0C10.1308 0 17.9047 8.33535 10.4763 18.7262Z" fill="#FFF7DB"/>
<path d="M32.2064 53.3917C32.2064 53.3917 37.9936 45.069 31.7745 36.4436C31.7745 36.4436 25.2962 42.3956 32.2064 53.3917Z" fill="#FFF7DB"/>
<path d="M22.3839 45.2202C22.3839 45.2202 28.7882 39.1169 24.1608 28.6504C24.1608 28.6504 16.9668 31.8282 22.3839 45.2202Z" fill="#FFF7DB"/>
<path d="M15.4614 33.7323C15.4614 33.7323 22.3962 28.2721 18.7437 17.4021C18.7437 17.4021 11.2906 19.8737 15.4614 33.7323Z" fill="#FFF7DB"/>
</svg>
